<?xml version="1.0" encoding="UTF-8" standalone="no"?>
<!-- Created with Inkscape (http://www.inkscape.org/) -->

<svg
   version="1.1"
   id="svg2"
   xml:space="preserve"
   width="960"
   height="720"
   viewBox="0 0 960 720"
   xmlns="http://www.w3.org/2000/svg"
   xmlns:svg="http://www.w3.org/2000/svg"><defs
     id="defs6"><clipPath
       clipPathUnits="userSpaceOnUse"
       id="clipPath16"><path
         d="M 0,1.2207e-4 H 720 V 540.00012 H 0 Z"
         clip-rule="evenodd"
         id="path14" /></clipPath><clipPath
       clipPathUnits="userSpaceOnUse"
       id="clipPath162"><path
         d="M 1.056e-6,540 H 720 V 0 H 1.056e-6"
         clip-rule="evenodd"
         id="path160" /></clipPath><clipPath
       clipPathUnits="userSpaceOnUse"
       id="clipPath172"><path
         d="M -2.7e-8,540 H 720 V 1.2207e-4 H -2.7e-8"
         clip-rule="evenodd"
         id="path170" /></clipPath><clipPath
       clipPathUnits="userSpaceOnUse"
       id="clipPath242"><path
         d="M 1.67e-7,540 H 720 V 1.2207e-4 H 1.67e-7"
         clip-rule="evenodd"
         id="path240" /></clipPath><clipPath
       clipPathUnits="userSpaceOnUse"
       id="clipPath280"><path
         d="M 3.41e-7,540 H 720 V 1.2207e-4 H -6.43e-7"
         clip-rule="evenodd"
         id="path278" /></clipPath></defs><g
     id="g8"
     transform="matrix(1.3333333,0,0,-1.3333333,0,720)"><g
       id="g10"><g
         id="g12"
         clip-path="url(#clipPath16)"><path
           d="M 0,6.104e-6 H 720 V 540.00001 H 0 Z"
           style="fill:#ffffff;fill-opacity:1;fill-rule:evenodd;stroke:none"
           id="path18" /></g></g><path
       d="m 14.456,395.21 c 0,2.87 2.326,5.2 5.196,5.2 H 156.66 c 2.87,0 5.2,-2.33 5.2,-5.2 v -20.79 c 0,-2.87 -2.33,-5.19 -5.2,-5.19 H 19.652 c -2.87,0 -5.196,2.32 -5.196,5.19 z"
       style="fill:#eedc00;fill-opacity:1;fill-rule:evenodd;stroke:none"
       id="path20" /><path
       d="m 14.456,395.21 c 0,2.87 2.326,5.2 5.196,5.2 H 156.66 c 2.87,0 5.2,-2.33 5.2,-5.2 v -20.79 c 0,-2.87 -2.33,-5.19 -5.2,-5.19 H 19.652 c -2.87,0 -5.196,2.32 -5.196,5.19 z"
       style="fill:none;stroke:#1f497d;stroke-width:2;stroke-linecap:butt;stroke-linejoin:round;stroke-miterlimit:10;stroke-dasharray:none;stroke-opacity:1"
       id="path22" /><text
       transform="matrix(1,0,0,-1,21.675,391)"
       style="font-variant:normal;font-weight:normal;font-size:8px;font-family:Arial;-inkscape-font-specification:Arial;writing-mode:lr-tb;fill:#000000;fill-opacity:1;fill-rule:nonzero;stroke:none"
       id="text26"><tspan
         x="0 4.7919998 7.184"
         y="0"
         id="tspan24">1. </tspan></text><text
       transform="matrix(1,0,0,-1,30.475,391)"
       style="font-variant:normal;font-weight:normal;font-size:8px;font-family:Arial;-inkscape-font-specification:Arial;writing-mode:lr-tb;fill:#000000;fill-opacity:1;fill-rule:nonzero;stroke:none"
       id="text30"><tspan
         x="0 5.5999999 10.392 12.784 17.576 22.368 26.368 27.968 32.759998 37.551998 39.944 44.736 47.136002 51.928001 56.720001 59.112 63.903999 71.096001 74.295998 75.896004 78.295998 83.087997 85.487999 87.087997 89.480003 91.872002 96.664001 101.456 106.248 108.648"
         y="0"
         id="tspan28">Do any heteroatoms (or linear </tspan></text><text
       transform="matrix(1,0,0,-1,21.675,381.38)"
       style="font-variant:normal;font-weight:normal;font-size:8.025px;font-family:Arial;-inkscape-font-specification:Arial;writing-mode:lr-tb;fill:#000000;fill-opacity:1;fill-rule:nonzero;stroke:none"
       id="text34"><tspan
         x="0 4.0124998 8.7953997 13.586325 15.977775 20.7687 23.970675 25.56765 30.358576 32.750027 34.347 39.137924 43.928848 46.320301 51.111225 53.5107 58.301624 63.092548 65.484001 70.274925 77.465324 80.667297 83.066772 84.66375 87.055199 91.846123 94.245598 101.436 103.03297 107.8239 112.61482 115.0143 117.40575 119.00272 123.79365 126.1851 127.78207 132.573"
         y="0"
         id="tspan32">chains of heteroatoms) form part of a </tspan></text><text
       transform="matrix(1,0,0,-1,21.675,371.77)"
       style="font-variant:normal;font-weight:normal;font-size:8px;font-family:Arial;-inkscape-font-specification:Arial;writing-mode:lr-tb;fill:#000000;fill-opacity:1;fill-rule:nonzero;stroke:none"
       id="text38"><tspan
         x="0 2.4000001 4.7919998 9.5839996 14.376"
         y="0"
         id="tspan36">ring?</tspan></text><path
       d="m 14.456,227.78 c 0,2.96 2.404,5.37 5.369,5.37 H 156.49 c 2.96,0 5.37,-2.41 5.37,-5.37 V 206.3 c 0,-2.97 -2.41,-5.37 -5.37,-5.37 H 19.825 c -2.965,0 -5.369,2.4 -5.369,5.37 z"
       style="fill:#eedc00;fill-opacity:1;fill-rule:evenodd;stroke:none"
       id="path40" /><path
       d="m 14.456,227.78 c 0,2.96 2.404,5.37 5.369,5.37 H 156.49 c 2.96,0 5.37,-2.41 5.37,-5.37 V 206.3 c 0,-2.97 -2.41,-5.37 -5.37,-5.37 H 19.825 c -2.965,0 -5.369,2.4 -5.369,5.37 z"
       style="fill:none;stroke:#1f497d;stroke-width:2;stroke-linecap:butt;stroke-linejoin:round;stroke-miterlimit:10;stroke-dasharray:none;stroke-opacity:1"
       id="path42" /><text
       transform="matrix(1,0,0,-1,21.725,222.98)"
       style="font-variant:normal;font-weight:normal;font-size:8px;font-family:Arial;-inkscape-font-specification:Arial;writing-mode:lr-tb;fill:#000000;fill-opacity:1;fill-rule:nonzero;stroke:none"
       id="text46"><tspan
         x="0 4.7919998 7.184"
         y="0"
         id="tspan44">3. </tspan></text><text
       transform="matrix(1,0,0,-1,30.525,222.98)"
       style="font-variant:normal;font-weight:normal;font-size:8px;font-family:Arial;-inkscape-font-specification:Arial;writing-mode:lr-tb;fill:#000000;fill-opacity:1;fill-rule:nonzero;stroke:none"
       id="text50"><tspan
         x="0 5.592 7.9920001 12.784 15.176 19.968 24.76 28.76 30.360001 35.152 37.543999 39.144001 41.535999 46.327999 51.119999 52.720001"
         y="0"
         id="tspan48">Are any of the C</tspan></text><text
       transform="matrix(1,0,0,-1,89,222.98)"
       style="font-variant:normal;font-weight:normal;font-size:8px;font-family:Arial;-inkscape-font-specification:Arial;writing-mode:lr-tb;fill:#000000;fill-opacity:1;fill-rule:nonzero;stroke:none"
       id="text54"><tspan
         x="0"
         y="0"
         id="tspan52">-</tspan></text><text
       transform="matrix(1,0,0,-1,91.4,222.98)"
       style="font-variant:normal;font-weight:normal;font-size:8px;font-family:Arial;-inkscape-font-specification:Arial;writing-mode:lr-tb;fill:#000000;fill-opacity:1;fill-rule:nonzero;stroke:none"
       id="text58"><tspan
         x="0 5.592 7.9840002 12.776 17.568001 22.360001 27.152 30.351999 31.952 34.344002 39.136002 40.736 43.127998 47.919998 50.312 53.512001"
         y="0"
         id="tspan56">X bonds to this </tspan></text><text
       transform="matrix(1,0,0,-1,21.725,213.35)"
       style="font-variant:normal;font-weight:normal;font-size:8px;font-family:Arial;-inkscape-font-specification:Arial;writing-mode:lr-tb;fill:#000000;fill-opacity:1;fill-rule:nonzero;stroke:none"
       id="text62"><tspan
         x="0 4.7919998 9.5839996 11.976 16.768 19.167999 23.959999 28.752001 31.143999 35.936001 43.127998 44.728001 49.52 51.919998 56.712002 59.911999 64.704002 69.496002 71.096001 75.888 80.68 83.080002 85.472 90.264 94.264 95.863998 98.255997 103.048 107.84"
         y="0"
         id="tspan60">heteroatom broken during the </tspan></text><text
       transform="matrix(1,0,0,-1,21.725,203.73)"
       style="font-variant:normal;font-weight:normal;font-size:8.025px;font-family:Arial;-inkscape-font-specification:Arial;writing-mode:lr-tb;fill:#000000;fill-opacity:1;fill-rule:nonzero;stroke:none"
       id="text66"><tspan
         x="0 2.3994751 7.1904001 11.981325 15.993825 18.377251 20.7687 25.559626 30.35055"
         y="0"
         id="tspan64">reaction?</tspan></text><path
       d="m 14.456,169.26 c 0,3.9 3.158,7.06 7.055,7.06 H 154.8 c 3.9,0 7.06,-3.16 7.06,-7.06 v -28.22 c 0,-3.9 -3.16,-7.06 -7.06,-7.06 H 21.511 c -3.897,0 -7.055,3.16 -7.055,7.06 z"
       style="fill:#eedc00;fill-opacity:1;fill-rule:evenodd;stroke:none"
       id="path68" /><path
       d="m 14.456,169.26 c 0,3.9 3.158,7.06 7.055,7.06 H 154.8 c 3.9,0 7.06,-3.16 7.06,-7.06 v -28.22 c 0,-3.9 -3.16,-7.06 -7.06,-7.06 H 21.511 c -3.897,0 -7.055,3.16 -7.055,7.06 z"
       style="fill:none;stroke:#1f497d;stroke-width:2;stroke-linecap:butt;stroke-linejoin:round;stroke-miterlimit:10;stroke-dasharray:none;stroke-opacity:1"
       id="path70" /><text
       transform="matrix(1,0,0,-1,22.225,160.98)"
       style="font-variant:normal;font-weight:normal;font-size:8.025px;font-family:Arial;-inkscape-font-specification:Arial;writing-mode:lr-tb;fill:#000000;fill-opacity:1;fill-rule:nonzero;stroke:none"
       id="text74"><tspan
         x="0 4.790925 7.182375"
         y="0"
         id="tspan72">4. </tspan></text><text
       transform="matrix(1,0,0,-1,31.025,160.98)"
       style="font-variant:normal;font-weight:normal;font-size:8.025px;font-family:Arial;-inkscape-font-specification:Arial;writing-mode:lr-tb;fill:#000000;fill-opacity:1;fill-rule:nonzero;stroke:none"
       id="text78"><tspan
         x="0 6.395925 11.18685 13.5783 15.175275 19.9662 22.357651 24.7491 27.140551 31.931475 36.722401 38.319374"
         y="0"
         id="tspan76">Out of the C</tspan></text><text
       transform="matrix(1,0,0,-1,75.075,160.98)"
       style="font-variant:normal;font-weight:normal;font-size:8.025px;font-family:Arial;-inkscape-font-specification:Arial;writing-mode:lr-tb;fill:#000000;fill-opacity:1;fill-rule:nonzero;stroke:none"
       id="text82"><tspan
         x="0"
         y="0"
         id="tspan80">-</tspan></text><text
       transform="matrix(1,0,0,-1,77.475,160.98)"
       style="font-variant:normal;font-weight:normal;font-size:8.025px;font-family:Arial;-inkscape-font-specification:Arial;writing-mode:lr-tb;fill:#000000;fill-opacity:1;fill-rule:nonzero;stroke:none"
       id="text86"><tspan
         x="0 5.5934248 7.1904001 11.981325 16.772249 21.563175 26.354099 29.556074 31.947525 34.338974 39.129902 40.726875 43.118324 47.909248 50.300701 53.502674 55.099651 59.890575 62.282024 67.072952 74.263351"
         y="0"
         id="tspan84">X bonds to this atom </tspan></text><text
       transform="matrix(1,0,0,-1,22.225,151.38)"
       style="font-variant:normal;font-weight:normal;font-size:8px;font-family:Arial;-inkscape-font-specification:Arial;writing-mode:lr-tb;fill:#000000;fill-opacity:1;fill-rule:nonzero;stroke:none"
       id="text90"><tspan
         x="0 2.392 7.184 8.7840004 11.176 15.968 20.76 22.360001 25.559999 27.952 32.743999 35.144001 37.535999 39.928001 44.720001 49.512001 51.112 58.304001 63.096001 65.487999 70.279999 72.68 75.071999 79.863998 81.463997 83.856003 85.456001 90.248001 95.040001 100.64 102.24 109.432 114.224 118.224 122.224"
         y="0"
         id="tspan88">in the starting material, how many </tspan></text><text
       transform="matrix(1,0,0,-1,22.225,141.75)"
       style="font-variant:normal;font-weight:normal;font-size:8.025px;font-family:Arial;-inkscape-font-specification:Arial;writing-mode:lr-tb;fill:#000000;fill-opacity:1;fill-rule:nonzero;stroke:none"
       id="text94"><tspan
         x="0 2.3994751 7.1904001 14.3808 19.171724 21.563175 26.354099 27.951075 30.342525 35.13345 36.730427 39.121876 43.9128 48.703724 50.300701 55.091625 59.882549 63.084526 65.475975 67.87545 72.666374 77.457298 79.054276 83.8452 86.244675 91.035599 95.826523 99.822975 103.83547 106.2189"
         y="0"
         id="tspan92">remain in the desired product?</tspan></text><path
       d="m 252.65,167.33 c 0,3.37 2.73,6.09 6.09,6.09 h 101.22 c 3.36,0 6.09,-2.72 6.09,-6.09 v -24.36 c 0,-3.36 -2.73,-6.09 -6.09,-6.09 H 258.74 c -3.36,0 -6.09,2.73 -6.09,6.09 z"
       style="fill:#eedc00;fill-opacity:1;fill-rule:evenodd;stroke:none"
       id="path96" /><path
       d="m 252.65,167.33 c 0,3.37 2.73,6.09 6.09,6.09 h 101.22 c 3.36,0 6.09,-2.72 6.09,-6.09 v -24.36 c 0,-3.36 -2.73,-6.09 -6.09,-6.09 H 258.74 c -3.36,0 -6.09,2.73 -6.09,6.09 z"
       style="fill:none;stroke:#1f497d;stroke-width:2;stroke-linecap:butt;stroke-linejoin:round;stroke-miterlimit:10;stroke-dasharray:none;stroke-opacity:1"
       id="path98" /><text
       transform="matrix(1,0,0,-1,260.4,156.17)"
       style="font-variant:normal;font-weight:normal;font-size:8px;font-family:Arial;-inkscape-font-specification:Arial;writing-mode:lr-tb;fill:#000000;fill-opacity:1;fill-rule:nonzero;stroke:none"
       id="text102"><tspan
         x="0 4.7919998 7.184"
         y="0"
         id="tspan100">5. </tspan></text><text
       transform="matrix(1,0,0,-1,269.2,156.17)"
       style="font-variant:normal;font-weight:normal;font-size:8px;font-family:Arial;-inkscape-font-specification:Arial;writing-mode:lr-tb;fill:#000000;fill-opacity:1;fill-rule:nonzero;stroke:none"
       id="text106"><tspan
         x="0 5.592 7.9920001 12.784 15.176 19.968 22.360001 24.752001 26.351999 31.143999 33.535999 35.136002 37.528 42.32 47.112 48.712002"
         y="0"
         id="tspan104">Are all of the C</tspan></text><text
       transform="matrix(1,0,0,-1,323.67,156.17)"
       style="font-variant:normal;font-weight:normal;font-size:8px;font-family:Arial;-inkscape-font-specification:Arial;writing-mode:lr-tb;fill:#000000;fill-opacity:1;fill-rule:nonzero;stroke:none"
       id="text110"><tspan
         x="0"
         y="0"
         id="tspan108">-</tspan></text><text
       transform="matrix(1,0,0,-1,326.08,156.17)"
       style="font-variant:normal;font-weight:normal;font-size:8px;font-family:Arial;-inkscape-font-specification:Arial;writing-mode:lr-tb;fill:#000000;fill-opacity:1;fill-rule:nonzero;stroke:none"
       id="text114"><tspan
         x="0 5.592 7.1919999 11.984 16.775999 21.568001 26.360001 29.559999"
         y="0"
         id="tspan112">X bonds </tspan></text><text
       transform="matrix(1,0,0,-1,260.4,146.55)"
       style="font-variant:normal;font-weight:normal;font-size:8.025px;font-family:Arial;-inkscape-font-specification:Arial;writing-mode:lr-tb;fill:#000000;fill-opacity:1;fill-rule:nonzero;stroke:none"
       id="text118"><tspan
         x="0 2.3914499 7.182375 8.7793503 11.1708 15.961725 18.353174 21.555149 23.9466 28.737526 33.52845 35.919899 40.710827 43.110298 47.901226 52.69215 55.083599 59.874523 67.064926 68.661903 73.452827 75.852303 80.643227 83.8452 88.636124 93.427048"
         y="0"
         id="tspan116">to this heteroatom broken?</tspan></text><path
       d="m 14.455,27.039 c 0,2.599 2.107,4.706 4.706,4.706 H 270.25 c 2.59,0 4.7,-2.107 4.7,-4.706 V 8.219 c 0,-2.5986 -2.11,-4.7053 -4.7,-4.7053 H 19.161 c -2.599,0 -4.706,2.1067 -4.706,4.7053 z"
       style="fill:#eedc00;fill-opacity:1;fill-rule:evenodd;stroke:none"
       id="path120" /><path
       d="m 14.455,27.039 c 0,2.599 2.107,4.706 4.706,4.706 H 270.25 c 2.59,0 4.7,-2.107 4.7,-4.706 V 8.219 c 0,-2.5986 -2.11,-4.7053 -4.7,-4.7053 H 19.161 c -2.599,0 -4.706,2.1067 -4.706,4.7053 z"
       style="fill:none;stroke:#1f497d;stroke-width:2;stroke-linecap:butt;stroke-linejoin:round;stroke-miterlimit:10;stroke-dasharray:none;stroke-opacity:1"
       id="path122" /><text
       transform="matrix(1,0,0,-1,21.525,18.45)"
       style="font-variant:normal;font-weight:normal;font-size:8px;font-family:Arial;-inkscape-font-specification:Arial;writing-mode:lr-tb;fill:#000000;fill-opacity:1;fill-rule:nonzero;stroke:none"
       id="text126"><tspan
         x="0"
         y="0"
         id="tspan124">6</tspan></text><text
       transform="matrix(1,0,0,-1,26.325,18.45)"
       style="font-variant:normal;font-weight:normal;font-size:8px;font-family:Arial;-inkscape-font-specification:Arial;writing-mode:lr-tb;fill:#000000;fill-opacity:1;fill-rule:nonzero;stroke:none"
       id="text130"><tspan
         x="0 2.4000001"
         y="0"
         id="tspan128">. </tspan></text><text
       transform="matrix(1,0,0,-1,30.325,18.45)"
       style="font-variant:normal;font-weight:normal;font-size:8px;font-family:Arial;-inkscape-font-specification:Arial;writing-mode:lr-tb;fill:#000000;fill-opacity:1;fill-rule:nonzero;stroke:none"
       id="text134"><tspan
         x="0 5.592 10.384 12.776 17.568001 21.568001 23.959999 25.559999 30.351999 32.743999 35.136002 36.736 39.127998 43.919998 48.712002 50.312 54.312 59.104 61.504002 66.295998 71.087997 75.087997 76.688004 81.480003 83.872002 88.664001 95.856003 99.056 100.656 105.448 107.848 112.64 115.84 120.632 125.424 127.816 129.416 131.808 136.60001 138.2 140.592 145.384 150.17599 151.776 154.976 157.368 162.16 164.56 166.952 169.34399 174.136 178.92799 180.528 187.72 192.51199 194.90401 198.90401 201.304 203.696 208.48801 210.088 211.688 214.08 218.87199 223.664 225.26401 226.864 230.864 232.464 237.256"
         y="0"
         id="tspan132">Select all the carbon atoms present in the starting material that are </tspan></text><text
       transform="matrix(1,0,0,-1,21.525,8.825)"
       style="font-variant:normal;font-weight:normal;font-size:8.025px;font-family:Arial;-inkscape-font-specification:Arial;writing-mode:lr-tb;fill:#000000;fill-opacity:1;fill-rule:nonzero;stroke:none"
       id="text138"><tspan
         x="0 4.790925 7.182375 10.38435 15.175275 16.772249 21.563175 23.96265 28.753574 31.955549 36.746475 41.537399 43.928848 46.320301 48.71175 53.502674 55.099651 57.4911 62.282024 67.072952 68.669922 73.460854 78.251778 81.453751 83.8452 86.244675 91.035599 95.826523 97.4235 102.21442 104.6139 109.40482 114.19575 118.98667 122.99918 125.3826 126.97958 131.77049 134.16196 135.75893 138.15038 142.9413 147.73222 149.32919 151.72867 156.51961 161.31053 165.32303 167.70645 170.0979 174.88882 178.88527 181.27672 182.8737 188.46713 194.06857"
         y="0"
         id="tspan136">also present in the desired product of the reaction. END</tspan></text><path
       d="m 89.656,369.23 v -39.45 h -3 v 39.45 z m 3,-37.95 -4.5,-9 -4.5,9 z"
       style="fill:#c00000;fill-opacity:1;fill-rule:nonzero;stroke:none"
       id="path140" /><path
       d="m 146.45,352.51 c 0,1.7 1.37,3.07 3.07,3.07 h 117.83 c 1.7,0 3.07,-1.37 3.07,-3.07 v -12.28 c 0,-1.7 -1.37,-3.07 -3.07,-3.07 H 149.52 c -1.7,0 -3.07,1.37 -3.07,3.07 z"
       style="fill:#ffffff;fill-opacity:1;fill-rule:evenodd;stroke:none"
       id="path142" /><path
       d="m 146.45,352.51 c 0,1.7 1.37,3.07 3.07,3.07 h 117.83 c 1.7,0 3.07,-1.37 3.07,-3.07 v -12.28 c 0,-1.7 -1.37,-3.07 -3.07,-3.07 H 149.52 c -1.7,0 -3.07,1.37 -3.07,3.07 z"
       style="fill:none;stroke:#004976;stroke-width:2;stroke-linecap:butt;stroke-linejoin:round;stroke-miterlimit:10;stroke-dasharray:none;stroke-opacity:1"
       id="path144" /><text
       transform="matrix(1,0,0,-1,157.23,342.88)"
       style="font-variant:normal;font-weight:normal;font-size:8px;font-family:Arial;-inkscape-font-specification:Arial;writing-mode:lr-tb;fill:#000000;fill-opacity:1;fill-rule:nonzero;stroke:none"
       id="text148"><tspan
         x="0 5.592 10.384 12.776 17.568001 21.568001 23.959999 25.559999 27.952 32.743999 37.535999 40.736 45.528 47.127998 51.919998 54.312 59.104 66.32 69.519997 71.912003 73.512001 79.903999 84.695999 86.295998 88.688004 93.480003 95.080002 99.872002"
         y="0"
         id="tspan146">Select these atoms. Go to 2.</tspan></text><path
       d="m 161.86,386.32 h 46.57 c 0.83,0 1.5,-0.67 1.5,-1.5 v -21.74 h -3 v 21.74 l 1.5,-1.5 h -46.57 z m 51.07,-21.74 -4.5,-9 -4.5,9 z"
       style="fill:#92d050;fill-opacity:1;fill-rule:nonzero;stroke:none"
       id="path150" /><path
       d="m 161.86,215.54 h 46.57 c 0.83,0 1.5,0.67 1.5,1.5 v 24.2 h -3 v -24.2 l 1.5,1.5 h -46.57 z m 51.07,24.2 -4.5,9 -4.5,-9 z"
       style="fill:#c8102e;fill-opacity:1;fill-rule:nonzero;stroke:none"
       id="path152" /><path
       d="m 161.86,302.69 h 66.54 v -3 h -66.54 z m 65.04,3 9,-4.5 -9,-4.5 z"
       style="fill:#c8102e;fill-opacity:1;fill-rule:nonzero;stroke:none"
       id="path154" /><g
       id="g156"><g
         id="g158"
         clip-path="url(#clipPath162)"><path
           d="m 209.93,267.17 v 21.62 c 0,0.82 -0.67,1.5 -1.5,1.5 h -39.07 v -3 h 39.07 l -1.5,1.5 v -21.62 z m -39.07,26.12 -9,-4.5 9,-4.5 z"
           style="fill:#c8102e;fill-opacity:1;fill-rule:nonzero;stroke:none"
           id="path164" /></g></g><g
       id="g166"><g
         id="g168"
         clip-path="url(#clipPath172)"><path
           d="m 209.93,337.16 v -23.57 c 0,-0.83 -0.67,-1.5 -1.5,-1.5 h -39.07 v 3 h 39.07 l -1.5,-1.5 v 23.57 z m -39.07,-28.07 -9,4.5 9,4.5 z"
           style="fill:#97d700;fill-opacity:1;fill-rule:nonzero;stroke:none"
           id="path174" /></g></g><path
       d="m 235.9,309.46 c 0,2.28 1.85,4.13 4.14,4.13 h 125.81 c 2.28,0 4.13,-1.85 4.13,-4.13 v -16.54 c 0,-2.28 -1.85,-4.13 -4.13,-4.13 H 240.04 c -2.29,0 -4.14,1.85 -4.14,4.13 z"
       style="fill:#ffffff;fill-opacity:1;fill-rule:evenodd;stroke:none"
       id="path176" /><path
       d="m 235.9,309.46 c 0,2.28 1.85,4.13 4.14,4.13 h 125.81 c 2.28,0 4.13,-1.85 4.13,-4.13 v -16.54 c 0,-2.28 -1.85,-4.13 -4.13,-4.13 H 240.04 c -2.29,0 -4.14,1.85 -4.14,4.13 z"
       style="fill:none;stroke:#004976;stroke-width:2;stroke-linecap:butt;stroke-linejoin:round;stroke-miterlimit:10;stroke-dasharray:none;stroke-opacity:1"
       id="path178" /><text
       transform="matrix(1,0,0,-1,251.9,302.42)"
       style="font-variant:normal;font-weight:normal;font-size:8.025px;font-family:Arial;-inkscape-font-specification:Arial;writing-mode:lr-tb;fill:#000000;fill-opacity:1;fill-rule:nonzero;stroke:none"
       id="text182"><tspan
         x="0 5.5934248 10.38435 12.7758 17.566725 21.579226 23.96265 25.559626 30.35055 32.742001 35.13345 36.730427 39.121876 43.9128 48.703724 50.300701 55.902149 57.499126 62.290051 64.681503 69.472427 76.662827 79.864799 81.461777 83.853226 88.64415 90.241127 92.632576 97.4235 102.21442"
         y="0"
         id="tspan180">Select all the C atoms in the </tspan></text><text
       transform="matrix(1,0,0,-1,263.1,292.83)"
       style="font-variant:normal;font-weight:normal;font-size:8px;font-family:Arial;-inkscape-font-specification:Arial;writing-mode:lr-tb;fill:#000000;fill-opacity:1;fill-rule:nonzero;stroke:none"
       id="text186"><tspan
         x="0 3.2 5.592 10.384 12.784 15.176 17.568001 22.360001 27.152 28.752001 35.944 40.736 43.127998 47.919998 50.32 52.712002 57.504002 59.104 61.495998"
         y="0"
         id="tspan184">starting material. </tspan></text><text
       transform="matrix(1,0,0,-1,326.38,292.83)"
       style="font-variant:normal;font-weight:normal;font-size:8px;font-family:Arial;-inkscape-font-specification:Arial;writing-mode:lr-tb;fill:#000000;fill-opacity:1;fill-rule:nonzero;stroke:none"
       id="text190"><tspan
         x="0 5.592 11.192"
         y="0"
         id="tspan188">END</tspan></text><path
       d="m 89.656,280.1 v -39.45 h -3 v 39.45 z m 3,-37.95 -4.5,-9 -4.5,9 z"
       style="fill:#97d700;fill-opacity:1;fill-rule:nonzero;stroke:none"
       id="path192" /><path
       d="m 184.14,161.76 c 0,1.83 1.48,3.31 3.31,3.31 h 41.97 c 1.82,0 3.3,-1.48 3.3,-3.31 v -13.22 c 0,-1.83 -1.48,-3.31 -3.3,-3.31 h -41.97 c -1.83,0 -3.31,1.48 -3.31,3.31 z"
       style="fill:#ffffff;fill-opacity:1;fill-rule:evenodd;stroke:none"
       id="path194" /><path
       d="m 184.14,161.76 c 0,1.83 1.48,3.31 3.31,3.31 h 41.97 c 1.82,0 3.3,-1.48 3.3,-3.31 v -13.22 c 0,-1.83 -1.48,-3.31 -3.3,-3.31 h -41.97 c -1.83,0 -3.31,1.48 -3.31,3.31 z"
       style="fill:none;stroke:#004976;stroke-width:2;stroke-linecap:butt;stroke-linejoin:round;stroke-miterlimit:10;stroke-dasharray:none;stroke-opacity:1"
       id="path196" /><text
       transform="matrix(1,0,0,-1,198.23,151.38)"
       style="font-variant:normal;font-weight:normal;font-size:8px;font-family:Arial;-inkscape-font-specification:Arial;writing-mode:lr-tb;fill:#000000;fill-opacity:1;fill-rule:nonzero;stroke:none"
       id="text200"><tspan
         x="0 5.5999999 10.392 15.184"
         y="0"
         id="tspan198">None</tspan></text><path
       d="m 161.86,156.65 h 14.78 v -3 h -14.78 z m 13.28,3 9,-4.5 -9,-4.5 z"
       style="fill:#c8102e;fill-opacity:1;fill-rule:nonzero;stroke:none"
       id="path202" /><path
       d="m 232.72,156.65 h 12.43 v -3 h -12.43 z m 10.93,3 9,-4.5 -9,-4.5 z"
       style="fill:#c8102e;fill-opacity:1;fill-rule:nonzero;stroke:none"
       id="path204" /><path
       d="m 89.656,200.93 v -17.11 h -3 v 17.11 z m 3,-15.61 -4.5,-9 -4.5,9 z"
       style="fill:#97d700;fill-opacity:1;fill-rule:nonzero;stroke:none"
       id="path206" /><path
       d="m 14.456,315.25 c 0,3.88 3.147,7.03 7.029,7.03 H 154.83 c 3.88,0 7.03,-3.15 7.03,-7.03 v -28.12 c 0,-3.88 -3.15,-7.03 -7.03,-7.03 H 21.485 c -3.882,0 -7.029,3.15 -7.029,7.03 z"
       style="fill:#eedc00;fill-opacity:1;fill-rule:evenodd;stroke:none"
       id="path208" /><path
       d="m 14.456,315.25 c 0,3.88 3.147,7.03 7.029,7.03 H 154.83 c 3.88,0 7.03,-3.15 7.03,-7.03 v -28.12 c 0,-3.88 -3.15,-7.03 -7.03,-7.03 H 21.485 c -3.882,0 -7.029,3.15 -7.029,7.03 z"
       style="fill:none;stroke:#1f497d;stroke-width:2;stroke-linecap:butt;stroke-linejoin:round;stroke-miterlimit:10;stroke-dasharray:none;stroke-opacity:1"
       id="path210" /><text
       transform="matrix(1,0,0,-1,22.2,307.25)"
       style="font-variant:normal;font-weight:normal;font-size:8px;font-family:Arial;-inkscape-font-specification:Arial;writing-mode:lr-tb;fill:#000000;fill-opacity:1;fill-rule:nonzero;stroke:none"
       id="text214"><tspan
         x="0 4.816 7.2080002"
         y="0"
         id="tspan212">2. </tspan></text><text
       transform="matrix(1,0,0,-1,31.025,307.25)"
       style="font-variant:normal;font-weight:normal;font-size:8px;font-family:Arial;-inkscape-font-specification:Arial;writing-mode:lr-tb;fill:#000000;fill-opacity:1;fill-rule:nonzero;stroke:none"
       id="text218"><tspan
         x="0 5.6160002 8.0159998 12.832 15.224 20.040001 24.856001 28.856001 30.455999 35.271999 40.088001 43.287998 48.104 50.495998 55.312 59.312 61.703999 66.519997 71.335999 72.935997 77.751999 82.568001 84.959999 89.776001 92.176003 96.991997 101.808 103.408 108.224 114.648 117.848"
         y="0"
         id="tspan216">Are any unselected heteroatoms </tspan></text><text
       transform="matrix(1,0,0,-1,22.2,297.63)"
       style="font-variant:normal;font-weight:normal;font-size:8px;font-family:Arial;-inkscape-font-specification:Arial;writing-mode:lr-tb;fill:#000000;fill-opacity:1;fill-rule:nonzero;stroke:none"
       id="text222"><tspan
         x="0 2.4000001 7.2160001 9.6160002 12.008 14.4 16.792 21.608 26.424 31.24 33.639999 35.240002 39.240002 44.056 48.872002 51.264 55.264 58.464001 60.063999 64.879997 67.272003 68.872002 73.688004 78.503998 80.896004 85.711998 88.112 92.928001 97.744003 100.136 104.952 111.376 114.576 116.976"
         y="0"
         id="tspan220">(or linear chains of heteroatoms) </tspan></text><text
       transform="matrix(1,0,0,-1,22.2,288)"
       style="font-variant:normal;font-weight:normal;font-size:8.025px;font-family:Arial;-inkscape-font-specification:Arial;writing-mode:lr-tb;fill:#000000;fill-opacity:1;fill-rule:nonzero;stroke:none"
       id="text226"><tspan
         x="0 4.0124998 8.8194752 13.634475 18.449474 23.264475 27.276976 29.6604 34.475399 39.290401 40.887375 43.278824 48.093826 49.6908 52.082249 57.707775 62.522774 64.119751 68.934753 71.334229 72.931198 80.145676 84.960678 87.360153 92.175148 93.772125 99.397652 100.99462 105.80962 108.20107 113.01608 120.23055 123.43253"
         y="0"
         id="tspan224">connected to two or more C atoms?</tspan></text><path
       d="m 146.45,264.1 c 0,1.69 1.37,3.07 3.07,3.07 h 117.83 c 1.7,0 3.07,-1.38 3.07,-3.07 v -12.29 c 0,-1.69 -1.37,-3.07 -3.07,-3.07 H 149.52 c -1.7,0 -3.07,1.38 -3.07,3.07 z"
       style="fill:#ffffff;fill-opacity:1;fill-rule:evenodd;stroke:none"
       id="path228" /><path
       d="m 146.45,264.1 c 0,1.69 1.37,3.07 3.07,3.07 h 117.83 c 1.7,0 3.07,-1.38 3.07,-3.07 v -12.29 c 0,-1.69 -1.37,-3.07 -3.07,-3.07 H 149.52 c -1.7,0 -3.07,1.38 -3.07,3.07 z"
       style="fill:none;stroke:#004976;stroke-width:2;stroke-linecap:butt;stroke-linejoin:round;stroke-miterlimit:10;stroke-dasharray:none;stroke-opacity:1"
       id="path230" /><text
       transform="matrix(1,0,0,-1,157.23,254.33)"
       style="font-variant:normal;font-weight:normal;font-size:8.025px;font-family:Arial;-inkscape-font-specification:Arial;writing-mode:lr-tb;fill:#000000;fill-opacity:1;fill-rule:nonzero;stroke:none"
       id="text234"><tspan
         x="0 5.5934248 10.38435 12.7758 17.566725 21.579226 23.96265 25.559626 27.951075 32.742001 37.532925 40.734901 45.525826 47.122799 51.913727 54.305176 59.0961 66.310577 69.51255 71.903999 73.500977 79.896896 84.687828 86.284798 88.676247 93.467178 95.064148 99.855072"
         y="0"
         id="tspan232">Select these atoms. Go to 2.</tspan></text><g
       id="g236"><g
         id="g238"
         clip-path="url(#clipPath242)"><path
           d="m 89.656,133.98 v -24.77 c 0,-0.83 -0.671,-1.5 -1.5,-1.5 H 39.999 l 1.5,1.5 V 87.864 h -3 v 21.346 c 0,0.83 0.672,1.5 1.5,1.5 h 48.157 l -1.5,-1.5 v 24.77 z m -45.157,-44.616 -4.5,-9 -4.5,9 z"
           style="fill:#97d700;fill-opacity:1;fill-rule:nonzero;stroke:none"
           id="path244" /></g></g><path
       d="m 14.456,77.793 c 0,1.42 1.151,2.571 2.57,2.571 h 45.946 c 1.419,0 2.571,-1.151 2.571,-2.571 V 67.51 c 0,-1.42 -1.152,-2.571 -2.571,-2.571 H 17.026 c -1.419,0 -2.57,1.151 -2.57,2.571 z"
       style="fill:#ffffff;fill-opacity:1;fill-rule:evenodd;stroke:none"
       id="path246" /><path
       d="m 14.456,77.793 c 0,1.42 1.151,2.571 2.57,2.571 h 45.946 c 1.419,0 2.571,-1.151 2.571,-2.571 V 67.51 c 0,-1.42 -1.152,-2.571 -2.571,-2.571 H 17.026 c -1.419,0 -2.57,1.151 -2.57,2.571 z"
       style="fill:none;stroke:#004976;stroke-width:2;stroke-linecap:butt;stroke-linejoin:round;stroke-miterlimit:10;stroke-dasharray:none;stroke-opacity:1"
       id="path248" /><text
       transform="matrix(1,0,0,-1,32.15,68.75)"
       style="font-variant:normal;font-weight:normal;font-size:8px;font-family:Arial;-inkscape-font-specification:Arial;writing-mode:lr-tb;fill:#000000;fill-opacity:1;fill-rule:nonzero;stroke:none"
       id="text252"><tspan
         x="0 6.3920002 11.184"
         y="0"
         id="tspan250">One</tspan></text><path
       d="m 86.593,79.613 c 0,2.559 2.075,4.634 4.634,4.634 H 198.18 c 2.56,0 4.63,-2.075 4.63,-4.634 V 61.08 c 0,-2.559 -2.07,-4.634 -4.63,-4.634 H 91.227 c -2.559,0 -4.634,2.075 -4.634,4.634 z"
       style="fill:#ffffff;fill-opacity:1;fill-rule:evenodd;stroke:none"
       id="path254" /><path
       d="m 86.593,79.613 c 0,2.559 2.075,4.634 4.634,4.634 H 198.18 c 2.56,0 4.63,-2.075 4.63,-4.634 V 61.08 c 0,-2.559 -2.07,-4.634 -4.63,-4.634 H 91.227 c -2.559,0 -4.634,2.075 -4.634,4.634 z"
       style="fill:none;stroke:#004976;stroke-width:2;stroke-linecap:butt;stroke-linejoin:round;stroke-miterlimit:10;stroke-dasharray:none;stroke-opacity:1"
       id="path256" /><text
       transform="matrix(1,0,0,-1,96.95,71.25)"
       style="font-variant:normal;font-weight:normal;font-size:8px;font-family:Arial;-inkscape-font-specification:Arial;writing-mode:lr-tb;fill:#000000;fill-opacity:1;fill-rule:nonzero;stroke:none"
       id="text260"><tspan
         x="0 5.6160002 11.24 16.056 17.656 22.472 24.872 26.472 33.688 38.504002 40.903999 45.720001 48.112"
         y="0"
         id="tspan258">Two or more. </tspan></text><text
       transform="matrix(1,0,0,-1,146.6,71.25)"
       style="font-variant:normal;font-weight:normal;font-size:8px;font-family:Arial;-inkscape-font-specification:Arial;writing-mode:lr-tb;fill:#000000;fill-opacity:1;fill-rule:nonzero;stroke:none"
       id="text264"><tspan
         x="0 5.6160002 10.432 12.824 17.639999 21.656 24.048 25.648001 28.040001 32.855999 37.672001 40.896 45.712002"
         y="0"
         id="tspan262">Select these </tspan></text><text
       transform="matrix(1,0,0,-1,116.95,61.625)"
       style="font-variant:normal;font-weight:normal;font-size:8.025px;font-family:Arial;-inkscape-font-specification:Arial;writing-mode:lr-tb;fill:#000000;fill-opacity:1;fill-rule:nonzero;stroke:none"
       id="text268"><tspan
         x="0 4.8150001 7.20645 12.02145 19.235926 22.461975 24.853424 26.450399 32.870399 37.685398 39.282375 41.673824 46.488827"
         y="0"
         id="tspan266">atoms. Go to </tspan></text><text
       transform="matrix(1,0,0,-1,165.02,61.625)"
       style="font-variant:normal;font-weight:normal;font-size:8.025px;font-family:Arial;-inkscape-font-specification:Arial;writing-mode:lr-tb;fill:#000000;fill-opacity:1;fill-rule:nonzero;stroke:none"
       id="text272"><tspan
         x="0 4.8249002"
         y="0"
         id="tspan270">6.</tspan></text><g
       id="g274"><g
         id="g276"
         clip-path="url(#clipPath280)"><path
           d="m 86.656,133.98 v -24.86 c 0,-0.83 0.672,-1.5 1.5,-1.5 H 144.7 l -1.5,1.5 V 91.747 h 3 v 17.373 c 0,0.82 -0.67,1.5 -1.5,1.5 H 88.156 l 1.5,-1.5 v 24.86 z m 53.544,-40.733 4.5,-9 4.5,9 z"
           style="fill:#97d700;fill-opacity:1;fill-rule:nonzero;stroke:none"
           id="path282" /></g></g><path
       d="M 40.452,66.369 138.01,35.441 137.1,32.581 39.546,63.509 Z m 97.028,-27.615 7.22,-7.009 -9.94,-1.57 z"
       style="fill:#97d700;fill-opacity:1;fill-rule:nonzero;stroke:none"
       id="path284" /><path
       d="M 146.2,56.446 V 39.245 h -3 v 17.201 z m 3,-15.701 -4.5,-9 -4.5,9 z"
       style="fill:#97d700;fill-opacity:1;fill-rule:nonzero;stroke:none"
       id="path286" /><path
       d="m 366.05,153.65 h 18 l -1.5,1.5 V 17.629 l 1.5,1.5 h -101.6 v -3 h 101.6 c 0.83,0 1.5,0.672 1.5,1.5 V 155.15 c 0,0.83 -0.67,1.5 -1.5,1.5 h -18 z m -82.1,-131.521 -9,-4.5 9,-4.5 z"
       style="fill:#c00000;fill-opacity:1;fill-rule:nonzero;stroke:none"
       id="path288" /><path
       d="M 310.85,136.88 V 90.864 h -3 v 46.016 z m 3,-44.516 -4.5,-9 -4.5,9 z"
       style="fill:#97d700;fill-opacity:1;fill-rule:nonzero;stroke:none"
       id="path290" /><path
       d="m 247.36,80.293 c 0,1.696 1.38,3.071 3.08,3.071 h 117.83 c 1.69,0 3.07,-1.375 3.07,-3.071 V 68.01 c 0,-1.696 -1.38,-3.071 -3.07,-3.071 H 250.44 c -1.7,0 -3.08,1.375 -3.08,3.071 z"
       style="fill:#ffffff;fill-opacity:1;fill-rule:evenodd;stroke:none"
       id="path292" /><path
       d="m 247.36,80.293 c 0,1.696 1.38,3.071 3.08,3.071 h 117.83 c 1.69,0 3.07,-1.375 3.07,-3.071 V 68.01 c 0,-1.696 -1.38,-3.071 -3.07,-3.071 H 250.44 c -1.7,0 -3.08,1.375 -3.08,3.071 z"
       style="fill:none;stroke:#004976;stroke-width:2;stroke-linecap:butt;stroke-linejoin:round;stroke-miterlimit:10;stroke-dasharray:none;stroke-opacity:1"
       id="path294" /><text
       transform="matrix(1,0,0,-1,258.27,70.25)"
       style="font-variant:normal;font-weight:normal;font-size:8px;font-family:Arial;-inkscape-font-specification:Arial;writing-mode:lr-tb;fill:#000000;fill-opacity:1;fill-rule:nonzero;stroke:none"
       id="text298"><tspan
         x="0 5.6160002 10.432 12.824 17.639999 21.656 24.048 25.648001 28.040001 32.855999 37.672001 40.896 45.712002 47.312 52.127998 54.52 59.335999 66.552002 69.776001 72.167999 73.767998 80.183998 85 86.599998 88.991997 93.807999"
         y="0"
         id="tspan296">Select these atoms. Go to </tspan></text><text
       transform="matrix(1,0,0,-1,353.58,70.25)"
       style="font-variant:normal;font-weight:normal;font-size:8px;font-family:Arial;-inkscape-font-specification:Arial;writing-mode:lr-tb;fill:#000000;fill-opacity:1;fill-rule:nonzero;stroke:none"
       id="text302"><tspan
         x="0 4.8249998"
         y="0"
         id="tspan300">6.</tspan></text><path
       d="m 309.06,66.409 -157.3,-31.712 0.59,-2.941 157.3,31.712 z m -156.42,-28.474 -7.94,-6.19 9.72,-2.633 z"
       style="fill:#97d700;fill-opacity:1;fill-rule:nonzero;stroke:none"
       id="path304" /><path
       d="m 12.119,515.23 c 0,11.74 9.519,21.26 21.26,21.26 H 364.38 c 11.74,0 21.26,-9.52 21.26,-21.26 v -85.04 c 0,-11.74 -9.52,-21.26 -21.26,-21.26 H 33.379 c -11.741,0 -21.26,9.52 -21.26,21.26 z"
       style="fill:#eedc00;fill-opacity:1;fill-rule:evenodd;stroke:none"
       id="path306" /><path
       d="m 12.119,515.23 c 0,11.74 9.519,21.26 21.26,21.26 H 364.38 c 11.74,0 21.26,-9.52 21.26,-21.26 v -85.04 c 0,-11.74 -9.52,-21.26 -21.26,-21.26 H 33.379 c -11.741,0 -21.26,9.52 -21.26,21.26 z"
       style="fill:none;stroke:#1f497d;stroke-width:2;stroke-linecap:butt;stroke-linejoin:round;stroke-miterlimit:10;stroke-dasharray:none;stroke-opacity:1"
       id="path308" /><text
       transform="matrix(1,0,0,-1,181.83,521.88)"
       style="font-variant:normal;font-weight:bold;font-size:12.025px;font-family:Arial;-inkscape-font-specification:'Arial Bold';writing-mode:lr-tb;fill:#000000;fill-opacity:1;fill-rule:nonzero;stroke:none"
       id="text312"><tspan
         x="0 8.7902746 15.99325 19.997576 27.1765"
         y="0"
         id="tspan310">Notes</tspan></text><path
       d="m 181.62,519.51 h 33.6 v 1.6 h -33.6 z"
       style="fill:#000000;fill-opacity:1;fill-rule:evenodd;stroke:none"
       id="path314" /><text
       transform="matrix(1,0,0,-1,24.05,509.85)"
       style="font-variant:normal;font-weight:normal;font-size:10.425px;font-family:Arial;-inkscape-font-specification:Arial;writing-mode:lr-tb;fill:#000000;fill-opacity:1;fill-rule:nonzero;stroke:none"
       id="text318"><tspan
         x="0"
         y="0"
         id="tspan316">•</tspan></text><text
       transform="matrix(1,0,0,-1,37.65,509.85)"
       style="font-variant:normal;font-weight:normal;font-size:10.425px;font-family:Arial;-inkscape-font-specification:Arial;writing-mode:lr-tb;fill:#000000;fill-opacity:1;fill-rule:nonzero;stroke:none"
       id="text322"><tspan
         x="0 7.2004752"
         y="0"
         id="tspan320">A </tspan></text><text
       transform="matrix(1,0,0,-1,47.275,509.85)"
       style="font-variant:normal;font-weight:normal;font-size:10.425px;font-family:Arial;-inkscape-font-specification:Arial;writing-mode:lr-tb;fill:#000000;fill-opacity:1;fill-rule:nonzero;stroke:none"
       id="text326"><tspan
         x="0 5.5878 7.9751248 13.57335 19.171576 21.558901 27.157125 29.554874 35.142673 38.332726 43.93095 47.131424 50.321476 52.708801 58.307026 63.102524 65.500275 74.288551 79.886772 83.076828 88.675049 91.875526 94.262848 99.05835 101.44568 103.84342 112.6317 118.22993 123.02543 126.21548 128.61322 134.21146 136.59877 143.80244 149.40068 154.19618 158.99167 161.38942 166.98766 172.58588 174.98363 180.58185 186.18007 188.57782 190.96515 196.56337 202.16161 207.75983 210.15758 212.54491 218.14313 220.54088 226.1391 229.33957 234.93781 240.53603 243.7365 246.13425 248.532 254.13022 257.33069 259.72845 262.91849 268.51672 274.11496 279.70276 285.30096 287.69873 290.8992 296.49744 298.88474 304.48297 310.07077 312.46854 315.65857 321.25681"
         y="0"
         id="tspan324">single starting material must always be defined in order for these rules to </tspan></text><text
       transform="matrix(1,0,0,-1,37.65,497.85)"
       style="font-variant:normal;font-weight:normal;font-size:10.4px;font-family:Arial;-inkscape-font-specification:Arial;writing-mode:lr-tb;fill:#000000;fill-opacity:1;fill-rule:nonzero;stroke:none"
       id="text330"><tspan
         x="0 7.1968002 12.792 15.9952 21.58 24.7728 27.1752 29.5776 35.172798 37.575199 40.768002 46.363201 51.958401 54.360802 59.945599 65.540802 71.125603 76.720802 79.123199 84.718399 87.120796 89.523201 95.108002 100.7032 104.7072 110.3024 113.5056 119.1008 121.4928 123.8952 127.8888 133.48399 139.07919 144.67439 150.26961 152.66161 156.6552 159.0576 162.2608 167.856 173.4512 179.036 182.22881 184.6208 190.216 195.0208 197.4232 203.0184 208.6136 211.8168 215.0096 220.6048 226.2 229.4032 234.20799 237.4008 239.80321 242.996 248.5912 253.396 258.99121 261.39359 264.5864 270.18161 274.98639 277.38879 282.98401 288.57919 294.17441 296.57681 299.76959 305.36481 310.95999 314.1528"
         y="0"
         id="tspan328">work. In the case of several &quot;equal&quot; reaction partners, take the one that </tspan></text><text
       transform="matrix(1,0,0,-1,37.65,485.83)"
       style="font-variant:normal;font-weight:normal;font-size:10.425px;font-family:Arial;-inkscape-font-specification:Arial;writing-mode:lr-tb;fill:#000000;fill-opacity:1;fill-rule:nonzero;stroke:none"
       id="text334"><tspan
         x="0 5.5878 11.186025 16.78425 19.9743 23.174774 25.562099 31.160324 36.758549 39.948601 45.546825 51.134624 53.532375 56.722424 62.320648 67.11615 69.513901 71.901222 77.499451 80.699928 86.298149 91.896378 95.096848 97.494598 103.09283 108.69105 117.47932 123.07755 128.67578 131.87625 134.274 139.87222 142.26997 144.66772 150.26595 153.45599 159.05423 167.8425 172.638 175.03575 178.2258 183.82402 186.22177 189.41182 195.01006 200.60828 203.00603 208.60425 214.20247 217.40295 220.593 222.99075 228.58897 230.98672 233.38448 236.57452 242.17274 247.77098 250.16873 255.76695 258.96744 264.56564 270.16388 275.76208 280.55759 283.74765 286.14539 291.74362 294.14139 296.53912 298.92645 304.52469 307.71472 313.31296 316.51343 322.11166 326.90714 330.0972"
         y="0"
         id="tspan332">contributes the larger number of atoms to the part of the product of interest.</tspan></text><text
       transform="matrix(1,0,0,-1,24.05,473.8)"
       style="font-variant:normal;font-weight:normal;font-size:10.425px;font-family:Arial;-inkscape-font-specification:Arial;writing-mode:lr-tb;fill:#000000;fill-opacity:1;fill-rule:nonzero;stroke:none"
       id="text338"><tspan
         x="0"
         y="0"
         id="tspan336">•</tspan></text><text
       transform="matrix(1,0,0,-1,37.65,473.8)"
       style="font-variant:normal;font-weight:normal;font-size:10.425px;font-family:Arial;-inkscape-font-specification:Arial;writing-mode:lr-tb;fill:#000000;fill-opacity:1;fill-rule:nonzero;stroke:none"
       id="text342"><tspan
         x="0 5.5982251 11.19645"
         y="0"
         id="tspan340">To </tspan></text><text
       transform="matrix(1,0,0,-1,52.075,473.8)"
       style="font-variant:normal;font-weight:normal;font-size:10.425px;font-family:Arial;-inkscape-font-specification:Arial;writing-mode:lr-tb;fill:#000000;fill-opacity:1;fill-rule:nonzero;stroke:none"
       id="text346"><tspan
         x="0 5.5982251 11.19645 14.3865 19.984726 23.1852 31.973475 34.360802 39.959026 45.557251 47.955002 51.14505 56.743275 62.341499 64.73925 70.327049 75.914848 81.513077 83.900398 88.6959 91.885948 97.484177 103.0824 105.48015 107.86748 113.4657 115.86345 119.0535 123.849 129.44722 131.84497 137.44321 140.64368 146.2419 151.84012 157.43835 163.02615 165.4239 167.82166 170.20897 175.80721 178.20496 183.79276 189.39098 194.18648 199.7847 204.5802 206.97795 214.18163 219.77985 225.37808 228.57855 234.17677 236.57452 238.96185 242.1519 244.54965 246.93698 252.52478 254.92253 260.52075 266.11899 268.51672 270.91449 276.5127 282.11093 286.11414 288.50146 294.09967 299.69791 305.28571 308.47574"
         y="0"
         id="tspan344">determine the skeleton in the product in cases where it is not obvious, </tspan></text><text
       transform="matrix(1,0,0,-1,37.65,461.8)"
       style="font-variant:normal;font-weight:normal;font-size:10.4px;font-family:Arial;-inkscape-font-specification:Arial;writing-mode:lr-tb;fill:#000000;fill-opacity:1;fill-rule:nonzero;stroke:none"
       id="text350"><tspan
         x="0 2.392 11.18 16.7752 22.370399 24.7624 30.357599 35.952801 38.355202 41.548 47.1432 52.7384 55.1408 58.344002 63.939201 69.534401 75.119202 78.311996 80.704002 86.299202 91.894402 94.296799 99.891998 105.4872 107.8792 113.4744 119.0696 121.472 124.6752 130.2704 135.8656 138.26801 140.66 146.2552 148.65759 151.86079 157.45599 161.46001 167.05521 170.25841 175.8432 181.4384 184.6312 187.0336 192.6288 198.224 203.8192 206.2216 208.62399 214.21919 216.61121 219.0032 224.5984 231.7952 234.1976 237.3904 242.9856 248.5808 250.9832 253.3856 255.7776 261.3728 268.56961 274.15439 279.7496 285.34479 288.548 291.74081 294.14319 299.7384 304.54321 306.94559 312.5408 318.12561 323.72079 329.31601"
         y="0"
         id="tspan348">imagine the reaction being run in reverse, and follow the flowchart as usual</tspan></text><text
       transform="matrix(1,0,0,-1,370.02,461.8)"
       style="font-variant:normal;font-weight:normal;font-size:10.4px;font-family:Arial;-inkscape-font-specification:Arial;writing-mode:lr-tb;fill:#000000;fill-opacity:1;fill-rule:nonzero;stroke:none"
       id="text354"><tspan
         x="0"
         y="0"
         id="tspan352">.</tspan></text><text
       transform="matrix(1,0,0,-1,24.05,449.77)"
       style="font-variant:normal;font-weight:normal;font-size:10.4px;font-family:Arial;-inkscape-font-specification:Arial;writing-mode:lr-tb;fill:#000000;fill-opacity:1;fill-rule:nonzero;stroke:none"
       id="text358"><tspan
         x="0"
         y="0"
         id="tspan356">•</tspan></text><text
       transform="matrix(1,0,0,-1,37.65,449.77)"
       style="font-variant:normal;font-weight:normal;font-size:10.4px;font-family:Arial;-inkscape-font-specification:Arial;writing-mode:lr-tb;fill:#000000;fill-opacity:1;fill-rule:nonzero;stroke:none"
       id="text362"><tspan
         x="0 7.9976001 13.5928 15.9848 21.569599 23.972 29.5672 35.162399 40.757599 43.149601 48.734402 51.136799 54.329601 59.924801 65.519997 67.922401 71.125603 76.720802 79.112801 84.708 90.292801 92.695198 98.290398 100.6928 103.0952 106.288 111.8832 117.4784 119.8808 125.4656 130.2704 135.8656 141.4608 149.4584 155.0536 157.45599 160.6488 166.244 168.64639 171.8392 177.4344 183.0296 185.43201 191.02721 194.23039 199.82561 205.42081 211.01601 215.8208 218.22321 220.6256 223.01759 225.42 227.8224 230.2144 233.4072 235.8096 238.2016 243.78641 246.1888 251.784 254.17599 256.5784 258.9808 261.3728 266.95761 272.5528 274.94479 278.1376 280.54001 282.94241 288.5376 290.94 296.53519 302.1304 305.32321 310.9184 314.12161 322.1192 324.5112 330.10641 335.7016"
         y="0"
         id="tspan360">Only apply the rules of the scheme to the product if it is difficult to determine </tspan></text><text
       transform="matrix(1,0,0,-1,37.65,437.75)"
       style="font-variant:normal;font-weight:normal;font-size:10.425px;font-family:Arial;-inkscape-font-specification:Arial;writing-mode:lr-tb;fill:#000000;fill-opacity:1;fill-rule:nonzero;stroke:none"
       id="text366"><tspan
         x="0 3.1900499 8.7882748 14.3865 16.78425 22.372049 27.95985 33.558075 35.9454 41.543625 44.733673 50.331902 55.930126 58.327873 60.725624 63.926102 69.524323 78.312599 80.71035 83.900398 89.498627 95.096848 97.494598 103.0824 105.48015 111.07838 114.27885 117.4689 119.06393 124.66215 130.26038 132.65813 141.4464 147.04463 149.44237 155.0406 158.24107 160.6284 166.22662 168.61395"
         y="0"
         id="tspan364">the skeleton from the starting material.</tspan></text><text
       transform="matrix(1,0,0,-1,24.05,425.73)"
       style="font-variant:normal;font-weight:normal;font-size:10.425px;font-family:Arial;-inkscape-font-specification:Arial;writing-mode:lr-tb;fill:#000000;fill-opacity:1;fill-rule:nonzero;stroke:none"
       id="text370"><tspan
         x="0"
         y="0"
         id="tspan368">•</tspan></text><text
       transform="matrix(1,0,0,-1,37.65,425.73)"
       style="font-variant:normal;font-weight:normal;font-size:10.425px;font-family:Arial;-inkscape-font-specification:Arial;writing-mode:lr-tb;fill:#000000;fill-opacity:1;fill-rule:nonzero;stroke:none"
       id="text374"><tspan
         x="0 5.5982251 9.5909996 15.981525 18.379274 23.977501 29.575726 32.765774 38.363998 41.564476 47.162701 52.760925 55.950974 61.549198 70.337479 72.735222 78.33345 81.533928 87.132149 92.730377 98.328598"
         y="0"
         id="tspan372">X = heteroatom group </tspan></text><text
       transform="matrix(1,0,0,-1,138.58,425.73)"
       style="font-variant:normal;font-weight:normal;font-size:10.425px;font-family:Arial;-inkscape-font-specification:Arial;writing-mode:lr-tb;fill:#000000;fill-opacity:1;fill-rule:nonzero;stroke:none"
       id="text378"><tspan
         x="0 3.200475 5.5878 8.7778502 14.376075 17.566126"
         y="0"
         id="tspan376">(i.e. </tspan></text><text
       transform="matrix(1,0,0,-1,158.6,425.73)"
       style="font-variant:normal;font-weight:normal;font-size:10.425px;font-family:Arial;-inkscape-font-specification:Arial;writing-mode:lr-tb;fill:#000000;fill-opacity:1;fill-rule:nonzero;stroke:none"
       id="text382"><tspan
         x="0 5.5982251 11.19645 15.99195"
         y="0"
         id="tspan380">any </tspan></text><text
       transform="matrix(1,0,0,-1,177,425.73)"
       style="font-variant:normal;font-weight:normal;font-size:10.425px;font-family:Arial;-inkscape-font-specification:Arial;writing-mode:lr-tb;fill:#000000;fill-opacity:1;fill-rule:nonzero;stroke:none"
       id="text386"><tspan
         x="0 8.7882748 14.3865 16.78425 22.382475 24.7698 27.157125 32.755348 35.142673 39.938175 42.335926 47.934151 51.134624 53.532375 59.1306 64.728828"
         y="0"
         id="tspan384">metalloid or non</tspan></text><text
       transform="matrix(1,0,0,-1,247.5,425.73)"
       style="font-variant:normal;font-weight:normal;font-size:10.425px;font-family:Arial;-inkscape-font-specification:Arial;writing-mode:lr-tb;fill:#000000;fill-opacity:1;fill-rule:nonzero;stroke:none"
       id="text390"><tspan
         x="0"
         y="0"
         id="tspan388">-</tspan></text><text
       transform="matrix(1,0,0,-1,250.7,425.73)"
       style="font-variant:normal;font-weight:normal;font-size:10.425px;font-family:Arial;-inkscape-font-specification:Arial;writing-mode:lr-tb;fill:#000000;fill-opacity:1;fill-rule:nonzero;stroke:none"
       id="text394"><tspan
         x="0 8.7882748 14.3865 17.57655 23.174774 25.562099 27.95985 33.558075 35.9454 41.543625 49.5396 55.137825 60.73605 63.133801"
         y="0"
         id="tspan392">metal element </tspan></text><text
       transform="matrix(1,0,0,-1,316.38,425.73)"
       style="font-variant:normal;font-weight:normal;font-size:10.425px;font-family:Arial;-inkscape-font-specification:Arial;writing-mode:lr-tb;fill:#000000;fill-opacity:1;fill-rule:nonzero;stroke:none"
       id="text398"><tspan
         x="0 5.5982251 8.7882748 14.3865 19.984726 23.1852 25.582951 28.773001 34.371223 39.969452 45.567677 47.965424 55.169102"
         y="0"
         id="tspan396">other than C </tspan></text><text
       transform="matrix(1,0,0,-1,37.65,413.73)"
       style="font-variant:normal;font-weight:normal;font-size:10.4px;font-family:Arial;-inkscape-font-specification:Arial;writing-mode:lr-tb;fill:#000000;fill-opacity:1;fill-rule:nonzero;stroke:none"
       id="text402"><tspan
         x="0 5.5952001 8.7983999 11.9912 19.188 22.391199"
         y="0"
         id="tspan400">or H).</tspan></text><text
       transform="matrix(1,0,0,-1,194.68,584.88)"
       style="font-variant:normal;font-weight:normal;font-size:44.075px;font-family:Calibri;-inkscape-font-specification:Calibri;writing-mode:lr-tb;fill:#000000;fill-opacity:1;fill-rule:nonzero;stroke:none"
       id="text406"><tspan
         x="0 20.01005 30.411751 53.639275 84.051025 102.47437 125.61375 146.50529 161.71118"
         y="0"
         id="tspan404">Flowchart</tspan></text><text
       transform="matrix(1,0,0,-1,382.08,584.88)"
       style="font-variant:normal;font-weight:normal;font-size:44.075px;font-family:Calibri;-inkscape-font-specification:Calibri;writing-mode:lr-tb;fill:#000000;fill-opacity:1;fill-rule:nonzero;stroke:none"
       id="text410"><tspan
         x="0 20.01005 38.433399 60.074226 70.475922 92.116753 105.73592 128.96346"
         y="0"
         id="tspan408">Skeleton</tspan></text></g></svg>
