<?xml version="1.0" encoding="UTF-8" standalone="no"?>
<!-- Created with Inkscape (http://www.inkscape.org/) -->

<svg
   xmlns:dc="http://purl.org/dc/elements/1.1/"
   xmlns:cc="http://creativecommons.org/ns#"
   xmlns:rdf="http://www.w3.org/1999/02/22-rdf-syntax-ns#"
   xmlns:svg="http://www.w3.org/2000/svg"
   xmlns="http://www.w3.org/2000/svg"
   xmlns:xlink="http://www.w3.org/1999/xlink"
   xmlns:sodipodi="http://sodipodi.sourceforge.net/DTD/sodipodi-0.dtd"
   xmlns:inkscape="http://www.inkscape.org/namespaces/inkscape"
   version="1.1"
   id="svg2"
   xml:space="preserve"
   width="530"
   height="800"
   viewBox="0 0 530 800"
   sodipodi:docname="flowchart_skeleton.svg"
   inkscape:version="0.92.4 (5da689c313, 2019-01-14)"><metadata
     id="metadata450"><rdf:RDF><cc:Work
         rdf:about=""><dc:format>image/svg+xml</dc:format><dc:type
           rdf:resource="http://purl.org/dc/dcmitype/StillImage" /><dc:title></dc:title></cc:Work></rdf:RDF></metadata><sodipodi:namedview
     pagecolor="#ffffff"
     bordercolor="#666666"
     borderopacity="1"
     objecttolerance="10"
     gridtolerance="10"
     guidetolerance="10"
     inkscape:pageopacity="1"
     inkscape:pageshadow="2"
     inkscape:window-width="1916"
     inkscape:window-height="1005"
     id="namedview448"
     showgrid="false"
     inkscape:zoom="1"
     inkscape:cx="171.8926"
     inkscape:cy="393.95414"
     inkscape:window-x="1680"
     inkscape:window-y="54"
     inkscape:window-maximized="0"
     inkscape:current-layer="svg2"
     showguides="false"
     fit-margin-top="3"
     fit-margin-bottom="3"
     fit-margin-left="3"
     fit-margin-right="3" /><defs
     id="defs6"><clipPath
       clipPathUnits="userSpaceOnUse"
       id="clipPath16"><path
         d="M 0,1.2207e-4 H 720 V 540.00012 H 0 Z"
         id="path14"
         inkscape:connector-curvature="0"
         style="clip-rule:evenodd" /></clipPath><clipPath
       clipPathUnits="userSpaceOnUse"
       id="clipPath162"><path
         d="M 1.056e-6,540 H 720 V 0 H 1.056e-6"
         id="path160"
         inkscape:connector-curvature="0"
         style="clip-rule:evenodd" /></clipPath><clipPath
       clipPathUnits="userSpaceOnUse"
       id="clipPath172"><path
         d="M -2.7e-8,540 H 720 V 1.2207e-4 H -2.7e-8"
         id="path170"
         inkscape:connector-curvature="0"
         style="clip-rule:evenodd" /></clipPath><clipPath
       clipPathUnits="userSpaceOnUse"
       id="clipPath242"><path
         d="M 1.67e-7,540 H 720 V 1.2207e-4 H 1.67e-7"
         id="path240"
         inkscape:connector-curvature="0"
         style="clip-rule:evenodd" /></clipPath><clipPath
       clipPathUnits="userSpaceOnUse"
       id="clipPath280"><path
         d="M 3.41e-7,540 H 720 V 1.2207e-4 H -6.43e-7"
         id="path278"
         inkscape:connector-curvature="0"
         style="clip-rule:evenodd" /></clipPath></defs><g
     id="g2374"
     transform="translate(14,-20)"><path
       d="m 7.449333,273.40406 c 0,-3.82667 3.101333,-6.93334 6.928,-6.93334 H 197.05466 c 3.82667,0 6.93334,3.10667 6.93334,6.93334 v 27.72 c 0,3.82666 -3.10667,6.92 -6.93334,6.92 H 14.377333 c -3.826667,0 -6.928,-3.09334 -6.928,-6.92 z"
       style="fill:#eedc00;fill-opacity:1;stroke:#1f497d;stroke-width:2.66666651;stroke-linecap:butt;stroke-linejoin:round;stroke-miterlimit:10;stroke-dasharray:none;stroke-opacity:1"
       id="path22"
       inkscape:connector-curvature="0" /><text
       y="291.80405"
       x="17.074667"
       style="font-variant:normal;font-weight:normal;font-size:10.66666603px;font-family:Arial;-inkscape-font-specification:Arial;writing-mode:lr-tb;fill:#000000;fill-opacity:1;fill-rule:nonzero;stroke:none;stroke-width:1.33333325"
       id="text34"><tspan
         style="stroke-width:1.33333325"
         id="tspan32" /></text>
<path
       d="m 7.449333,496.64405 c 0,-3.94667 3.205333,-7.16 7.158667,-7.16 h 182.22 c 3.94666,0 7.16,3.21333 7.16,7.16 v 28.64 c 0,3.96 -3.21334,7.16 -7.16,7.16 H 14.608 c -3.953334,0 -7.158667,-3.2 -7.158667,-7.16 z"
       style="fill:#eedc00;fill-opacity:1;stroke:#1f497d;stroke-width:2.66666651;stroke-linecap:butt;stroke-linejoin:round;stroke-miterlimit:10;stroke-dasharray:none;stroke-opacity:1"
       id="path42"
       inkscape:connector-curvature="0" /><path
       d="m 7.449333,575.60034 c 0,-5.71353 4.210667,-10.34296 9.406667,-10.34296 h 177.71866 c 5.2,0 9.41334,4.62943 9.41334,10.34296 v 41.34252 c 0,5.71353 -4.21334,10.34296 -9.41334,10.34296 H 16.856 c -5.196,0 -9.406667,-4.62943 -9.406667,-10.34296 z"
       style="fill:#eedc00;fill-opacity:1;stroke:#1f497d;stroke-width:2.79524136;stroke-linecap:butt;stroke-linejoin:round;stroke-miterlimit:10;stroke-dasharray:none;stroke-opacity:1"
       id="path70"
       inkscape:connector-curvature="0" /><path
       d="m 325.04133,577.24405 c 0,-4.49333 3.64,-8.12 8.12,-8.12 h 134.95999 c 4.48,0 8.12,3.62667 8.12,8.12 v 32.48 c 0,4.48 -3.64,8.12 -8.12,8.12 H 333.16133 c -4.48,0 -8.12,-3.64 -8.12,-8.12 z"
       style="fill:#eedc00;fill-opacity:1;stroke:#1f497d;stroke-width:2.66666651;stroke-linecap:butt;stroke-linejoin:round;stroke-miterlimit:10;stroke-dasharray:none;stroke-opacity:1"
       id="path98"
       inkscape:connector-curvature="0" /><path
       d="m 7.448,764.29871 c 0,-3.46533 2.809333,-6.27333 6.274666,-6.27333 H 348.50799 c 3.45334,0 6.26667,2.808 6.26667,6.27333 v 25.09333 c 0,3.46534 -2.81333,6.27467 -6.26667,6.27467 H 13.722666 c -3.465333,0 -6.274666,-2.80933 -6.274666,-6.27467 z"
       style="fill:#eedc00;fill-opacity:1;stroke:#1f497d;stroke-width:2.66666651;stroke-linecap:butt;stroke-linejoin:round;stroke-miterlimit:10;stroke-dasharray:none;stroke-opacity:1"
       id="path122"
       inkscape:connector-curvature="0" /><path
       d="m 107.716,308.04406 v 52.61333 h -4 v -52.61333 z m 4,50.61333 -6,12 -6.000003,-12 z"
       style="fill:#c00000;fill-opacity:1;fill-rule:nonzero;stroke:none;stroke-width:1.33333325"
       id="path140"
       inkscape:connector-curvature="0" /><path
       d="m 183.44133,330.33739 c 0,-2.26667 1.82667,-4.09333 4.09334,-4.09333 h 157.10666 c 2.26666,0 4.09333,1.82666 4.09333,4.09333 v 16.37333 c 0,2.26667 -1.82667,4.09334 -4.09333,4.09334 H 187.53467 c -2.26667,0 -4.09334,-1.82667 -4.09334,-4.09334 z"
       style="fill:#ffffff;fill-opacity:1;fill-rule:evenodd;stroke:none;stroke-width:1.33333325"
       id="path142"
       inkscape:connector-curvature="0" /><path
       d="m 183.44133,330.33739 c 0,-2.26667 1.82667,-4.09333 4.09334,-4.09333 h 157.10666 c 2.26666,0 4.09333,1.82666 4.09333,4.09333 v 16.37333 c 0,2.26667 -1.82667,4.09334 -4.09333,4.09334 H 187.53467 c -2.26667,0 -4.09334,-1.82667 -4.09334,-4.09334 z"
       style="fill:none;stroke:#004976;stroke-width:2.66666651;stroke-linecap:butt;stroke-linejoin:round;stroke-miterlimit:10;stroke-dasharray:none;stroke-opacity:1"
       id="path144"
       inkscape:connector-curvature="0" /><path
       d="m 203.988,285.25739 h 62.09333 c 1.10667,0 2,0.89333 2,2 v 28.98667 h -4 v -28.98667 l 2,2 H 203.988 Z m 68.09333,28.98667 -6,12 -6,-12 z"
       style="fill:#92d050;fill-opacity:1;fill-rule:nonzero;stroke:none;stroke-width:1.33333325"
       id="path150"
       inkscape:connector-curvature="0" /><path
       d="m 203.988,512.96405 h 62.09333 c 1.10667,0 2,-0.89333 2,-2 v -32.26666 h -4 v 32.26666 l 2,-2 H 203.988 Z m 68.09333,-32.26666 -6,-12 -6,12 z"
       style="fill:#c8102e;fill-opacity:1;fill-rule:nonzero;stroke:none;stroke-width:1.33333325"
       id="path152"
       inkscape:connector-curvature="0" /><path
       d="m 203.988,396.76405 h 88.72 v 4 h -88.72 z m 86.72,-4 12,6 -12,6 z"
       style="fill:#c8102e;fill-opacity:1;fill-rule:nonzero;stroke:none;stroke-width:1.33333325"
       id="path154"
       inkscape:connector-curvature="0" /><g
       transform="matrix(1.3333333,0,0,-1.3333333,-11.825333,823.03071)"
       id="g156"><g
         id="g158"
         clip-path="url(#clipPath162)"><path
           d="m 209.93,284.18 v 21.62 c 0,0.82 -0.67,1.5 -1.5,1.5 h -39.07 v -3 h 39.07 l -1.5,1.5 v -21.62 z m -39.07,26.12 -9,-4.5 9,-4.5 z"
           style="fill:#c8102e;fill-opacity:1;fill-rule:nonzero;stroke:none"
           id="path164"
           inkscape:connector-curvature="0" /></g></g><g
       transform="matrix(1.3333333,0,0,-1.3333333,-11.825333,823.03071)"
       id="g166"><g
         id="g168"
         clip-path="url(#clipPath172)"><path
           d="M 209.93,354.17 V 330.6 c 0,-0.83 -0.67,-1.5 -1.5,-1.5 h -39.07 v 3 h 39.07 l -1.5,-1.5 v 23.57 z m -39.07,-28.07 -9,4.5 9,4.5 z"
           style="fill:#97d700;fill-opacity:1;fill-rule:nonzero;stroke:none"
           id="path174"
           inkscape:connector-curvature="0" /></g></g><path
       d="m 302.708,387.73739 c 0,-3.04 2.46666,-5.50667 5.52,-5.50667 h 167.74666 c 3.04,0 5.50666,2.46667 5.50666,5.50667 v 22.05333 c 0,3.04 -2.46666,5.50667 -5.50666,5.50667 H 308.228 c -3.05334,0 -5.52,-2.46667 -5.52,-5.50667 z"
       style="fill:#ffffff;fill-opacity:1;fill-rule:evenodd;stroke:none;stroke-width:1.33333325"
       id="path176"
       inkscape:connector-curvature="0" /><path
       d="m 302.74675,389.95825 c 0,-4.24464 2.67387,-7.68878 5.98371,-7.68878 h 181.83867 c 3.29538,0 5.96926,3.44414 5.96926,7.68878 v 30.79243 c 0,4.24464 -2.67388,7.68877 -5.96926,7.68877 H 308.73046 c -3.30984,0 -5.98371,-3.44413 -5.98371,-7.68877 z"
       style="fill:none;stroke:#004976;stroke-width:3.28072357;stroke-linecap:butt;stroke-linejoin:round;stroke-miterlimit:10;stroke-dasharray:none;stroke-opacity:1"
       id="path178"
       inkscape:connector-curvature="0" /><path
       d="m 107.716,426.88405 v 52.6 h -4 v -52.6 z m 4,50.6 -6,12 -6.000003,-12 z"
       style="fill:#97d700;fill-opacity:1;fill-rule:nonzero;stroke:none;stroke-width:1.33333325"
       id="path192"
       inkscape:connector-curvature="0" /><path
       d="m 233.69466,584.67072 c 0,-2.44 1.97334,-4.41334 4.41334,-4.41334 h 55.96 c 2.42666,0 4.4,1.97334 4.4,4.41334 v 17.62666 c 0,2.44 -1.97334,4.41334 -4.4,4.41334 h -55.96 c -2.44,0 -4.41334,-1.97334 -4.41334,-4.41334 z"
       style="fill:#ffffff;fill-opacity:1;fill-rule:evenodd;stroke:none;stroke-width:1.33333325"
       id="path194"
       inkscape:connector-curvature="0" /><path
       d="m 233.69466,584.67072 c 0,-2.44 1.97334,-4.41334 4.41334,-4.41334 h 55.96 c 2.42666,0 4.4,1.97334 4.4,4.41334 v 17.62666 c 0,2.44 -1.97334,4.41334 -4.4,4.41334 h -55.96 c -2.44,0 -4.41334,-1.97334 -4.41334,-4.41334 z"
       style="fill:none;stroke:#004976;stroke-width:2.66666651;stroke-linecap:butt;stroke-linejoin:round;stroke-miterlimit:10;stroke-dasharray:none;stroke-opacity:1"
       id="path196"
       inkscape:connector-curvature="0" /><path
       d="m 203.988,591.48405 h 19.70666 v 4 H 203.988 Z m 17.70666,-4 12,6 -12,6 z"
       style="fill:#c8102e;fill-opacity:1;fill-rule:nonzero;stroke:none;stroke-width:1.33333325"
       id="path202"
       inkscape:connector-curvature="0" /><path
       d="m 298.468,591.48405 h 16.57333 v 4 H 298.468 Z m 14.57333,-4 12,6 -12,6 z"
       style="fill:#c8102e;fill-opacity:1;fill-rule:nonzero;stroke:none;stroke-width:1.33333325"
       id="path204"
       inkscape:connector-curvature="0" /><path
       d="m 107.716,532.44405 v 22.81333 h -4 v -22.81333 z m 4,20.81333 -6,12 -6.000003,-12 z"
       style="fill:#97d700;fill-opacity:1;fill-rule:nonzero;stroke:none;stroke-width:1.33333325"
       id="path206"
       inkscape:connector-curvature="0" /><path
       d="m 7.449333,380.01739 c 0,-5.17334 4.196,-9.36 9.372,-9.36 H 194.61466 c 5.17334,0 9.37334,4.18666 9.37334,9.36 v 37.49333 c 0,5.17333 -4.2,9.37333 -9.37334,9.37333 H 16.821333 c -5.176,0 -9.372,-4.2 -9.372,-9.37333 z"
       style="fill:#eedc00;fill-opacity:1;stroke:#1f497d;stroke-width:2.66666651;stroke-linecap:butt;stroke-linejoin:round;stroke-miterlimit:10;stroke-dasharray:none;stroke-opacity:1"
       id="path210"
       inkscape:connector-curvature="0" /><path
       d="m 183.44133,448.21739 c 0,-2.25334 1.82667,-4.09334 4.09334,-4.09334 h 157.10666 c 2.26666,0 4.09333,1.84 4.09333,4.09334 v 16.38666 c 0,2.25334 -1.82667,4.09334 -4.09333,4.09334 H 187.53467 c -2.26667,0 -4.09334,-1.84 -4.09334,-4.09334 z"
       style="fill:#ffffff;fill-opacity:1;fill-rule:evenodd;stroke:none;stroke-width:1.33333325"
       id="path228"
       inkscape:connector-curvature="0" /><path
       d="m 183.44133,448.21739 c 0,-2.25334 1.82667,-4.09334 4.09334,-4.09334 h 157.10666 c 2.26666,0 4.09333,1.84 4.09333,4.09334 v 16.38666 c 0,2.25334 -1.82667,4.09334 -4.09333,4.09334 H 187.53467 c -2.26667,0 -4.09334,-1.84 -4.09334,-4.09334 z"
       style="fill:none;stroke:#004976;stroke-width:2.66666651;stroke-linecap:butt;stroke-linejoin:round;stroke-miterlimit:10;stroke-dasharray:none;stroke-opacity:1"
       id="path230"
       inkscape:connector-curvature="0" /><text
       y="461.1907"
       x="197.81465"
       style="font-variant:normal;font-weight:normal;font-size:10.66666603px;font-family:Arial;-inkscape-font-specification:Arial;writing-mode:lr-tb;fill:#000000;fill-opacity:1;fill-rule:nonzero;stroke:none;stroke-width:1.33333325"
       id="text234"><tspan
         style="font-size:9.33333302px;stroke-width:1.33333325"
         x="197.81465 205.27066 211.65999 214.84932 221.23866 226.57199 229.76132 231.89465 235.08398 241.47333 247.86266 252.12932 258.51865 260.65198 267.04129 270.23065 276.61996 286.2413 290.50797 293.6973 295.83063 304.3533 310.74265 312.87598 316.06531 322.45465 324.58798 330.97729"
         y="461.1907"
         id="tspan232">Select these atoms. Go to 2.</tspan></text>
<g
       transform="matrix(1.3333333,0,0,-1.1468216,-11.825333,804.86932)"
       id="g236"><g
         id="g238"
         clip-path="url(#clipPath242)"><path
           d="m 89.656,150.99 v -24.77 c 0,-0.83 -0.671,-1.5 -1.5,-1.5 H 39.999 l 1.5,1.5 v -21.35 h -3 v 21.35 c 0,0.83 0.672,1.5 1.5,1.5 h 48.157 l -1.5,-1.5 v 24.77 z m -45.157,-44.62 -4.5,-8.996 -4.5,8.996 z"
           style="fill:#97d700;fill-opacity:1;fill-rule:nonzero;stroke:none"
           id="path244"
           inkscape:connector-curvature="0" /></g></g><path
       d="m 7.449333,696.62671 c 0,-1.89333 1.534667,-3.428 3.426667,-3.428 h 61.261332 c 1.892,0 3.427999,1.53467 3.427999,3.428 v 13.712 c 0,1.892 -1.535999,3.428 -3.427999,3.428 H 10.876 c -1.892,0 -3.426667,-1.536 -3.426667,-3.428 z"
       style="fill:#ffffff;fill-opacity:1;fill-rule:evenodd;stroke:none;stroke-width:1.33333325"
       id="path246"
       inkscape:connector-curvature="0" /><path
       d="m 7.449333,696.62671 c 0,-1.89333 1.534667,-3.428 3.426667,-3.428 h 61.261332 c 1.892,0 3.427999,1.53467 3.427999,3.428 v 13.712 c 0,1.892 -1.535999,3.428 -3.427999,3.428 H 10.876 c -1.892,0 -3.426667,-1.536 -3.426667,-3.428 z"
       style="fill:none;stroke:#004976;stroke-width:2.66666651;stroke-linecap:butt;stroke-linejoin:round;stroke-miterlimit:10;stroke-dasharray:none;stroke-opacity:1"
       id="path248"
       inkscape:connector-curvature="0" /><path
       d="m 103.632,694.20005 c 0,-3.412 2.76667,-6.18267 6.17867,-6.18267 h 142.60399 c 3.41334,0 6.17334,2.77067 6.17334,6.18267 v 24.712 c 0,3.412 -2.76,6.17733 -6.17334,6.17733 H 109.81067 c -3.412,0 -6.17867,-2.76533 -6.17867,-6.17733 z"
       style="fill:#ffffff;fill-opacity:1;fill-rule:evenodd;stroke:none;stroke-width:1.33333325"
       id="path254"
       inkscape:connector-curvature="0" /><path
       d="m 103.6889,693.95339 c 0,-3.24448 3.00567,-5.87911 6.71243,-5.87911 h 154.92314 c 3.7082,0 6.70663,2.63463 6.70663,5.87911 v 23.4987 c 0,3.24448 -2.99843,5.87403 -6.70663,5.87403 H 110.40133 c -3.70676,0 -6.71243,-2.62955 -6.71243,-5.87403 z"
       style="fill:none;stroke:#004976;stroke-width:2.71037269;stroke-linecap:butt;stroke-linejoin:round;stroke-miterlimit:10;stroke-dasharray:none;stroke-opacity:1"
       id="path256"
       inkscape:connector-curvature="0" /><g
       transform="matrix(1.3333333,0,0,-1.1322474,-11.825333,802.66876)"
       id="g274"><g
         id="g276"
         clip-path="url(#clipPath280)"><path
           d="m 86.656,150.99 v -24.86 c 0,-0.83 0.672,-1.5 1.5,-1.5 H 144.7 l -1.5,1.5 v -17.37 h 3 v 17.37 c 0,0.82 -0.67,1.5 -1.5,1.5 H 88.156 l 1.5,-1.5 v 24.86 z m 53.544,-40.73 4.5,-9 4.5,9 z"
           style="fill:#97d700;fill-opacity:1;fill-rule:nonzero;stroke:none"
           id="path282"
           inkscape:connector-curvature="0" /></g></g><path
       d="m 42.110666,711.86005 130.077334,41.236 -1.21333,3.81333 -130.072004,-41.23733 z m 129.370664,36.81866 9.62667,9.34667 -13.25333,2.092 z"
       style="fill:#97d700;fill-opacity:1;fill-rule:nonzero;stroke:none;stroke-width:1.33333325"
       id="path284"
       inkscape:connector-curvature="0" /><path
       d="m 183.108,725.08938 v 22.936 h -4 v -22.936 z m 4,20.936 -6,12 -6,-12 z"
       style="fill:#97d700;fill-opacity:1;fill-rule:nonzero;stroke:none;stroke-width:1.33333325"
       id="path286"
       inkscape:connector-curvature="0" /><path
       d="m 476.24132,595.48405 h 24 l -2,-2 v 183.36133 l 2,-2 H 364.77466 v 4 h 135.46666 c 1.10667,0 2,-0.896 2,-2 V 593.48405 c 0,-1.10667 -0.89333,-2 -2,-2 h -24 z m -109.46666,175.36133 -12,6 12,6 z"
       style="fill:#c00000;fill-opacity:1;fill-rule:nonzero;stroke:none;stroke-width:1.33333325"
       id="path288"
       inkscape:connector-curvature="0" /><path
       d="m 402.64133,617.84405 v 61.36 h -4 v -61.36 z m 4,59.36 -6,12 -6,-12 z"
       style="fill:#97d700;fill-opacity:1;fill-rule:nonzero;stroke:none;stroke-width:1.33333325"
       id="path290"
       inkscape:connector-curvature="0" /><path
       d="m 317.988,693.29338 c 0,-2.26133 1.84,-4.08933 4.10666,-4.08933 h 157.10666 c 2.25334,0 4.09334,1.828 4.09334,4.08933 v 16.37867 c 0,2.26133 -1.84,4.09466 -4.09334,4.09466 H 322.09466 c -2.26666,0 -4.10666,-1.83333 -4.10666,-4.09466 z"
       style="fill:#ffffff;fill-opacity:1;fill-rule:evenodd;stroke:none;stroke-width:1.33333325"
       id="path292"
       inkscape:connector-curvature="0" /><path
       d="m 317.988,693.29338 c 0,-2.26133 1.84,-4.08933 4.10666,-4.08933 h 157.10666 c 2.25334,0 4.09334,1.828 4.09334,4.08933 v 16.37867 c 0,2.26133 -1.84,4.09466 -4.09334,4.09466 H 322.09466 c -2.26666,0 -4.10666,-1.83333 -4.10666,-4.09466 z"
       style="fill:none;stroke:#004976;stroke-width:2.66666651;stroke-linecap:butt;stroke-linejoin:round;stroke-miterlimit:10;stroke-dasharray:none;stroke-opacity:1"
       id="path294"
       inkscape:connector-curvature="0" /><text
       y="706.66406"
       x="332.53464"
       style="font-variant:normal;font-weight:normal;font-size:10.69999886px;font-family:Arial;-inkscape-font-specification:Arial;writing-mode:lr-tb;fill:#000000;fill-opacity:1;fill-rule:nonzero;stroke:none;stroke-width:1.33333325"
       id="text298"><tspan
         style="stroke-width:1.33333325"
         x="332.53464 340.02463 346.44464 349.63324 356.05325 361.40323 364.61325 366.74255 369.93115 376.35114 382.77115 387.07254 393.49255 395.62183 402.04184 405.23044 411.65045 421.26974 425.57114 428.75974 430.88904 439.44904 445.86905 447.99835 451.18695 457.60693"
         y="706.66406"
         id="tspan296">Select these atoms. Go to 6</tspan></text>
<path
       d="m 400.25466,711.80538 -209.73333,42.28267 0.78667,3.92133 209.73333,-42.28267 z m -208.56,37.96667 -10.58666,8.25333 12.96,3.50933 z"
       style="fill:#97d700;fill-opacity:1;fill-rule:nonzero;stroke:none;stroke-width:1.33333325"
       id="path304"
       inkscape:connector-curvature="0" /><path
       d="m 4.333333,137.95073 c 0,-12.52 10.154667,-22.68 22.68,-22.68 H 479.68132 c 12.52,0 22.68,10.16 22.68,22.68 v 90.71999 c 0,12.53334 -10.16,22.68 -22.68,22.68 H 27.013333 c -12.525333,0 -22.68,-10.14666 -22.68,-22.68 z"
       style="fill:#eedc00;fill-opacity:1;stroke:#1f497d;stroke-width:2.66666651;stroke-linecap:butt;stroke-linejoin:round;stroke-miterlimit:10;stroke-dasharray:none;stroke-opacity:1"
       id="path308"
       inkscape:connector-curvature="0" /><text
       y="173.8307"
       x="65.541336"
       style="font-variant:normal;font-weight:normal;font-size:13.89999962px;font-family:Arial;-inkscape-font-specification:Arial;writing-mode:lr-tb;fill:#000000;fill-opacity:1;fill-rule:nonzero;stroke:none;stroke-width:1.33333325"
       id="text334"><tspan
         style="stroke-width:1.33333325"
         x="65.541336"
         y="173.8307"
         id="tspan332" /></text>
<text
       y="189.8307"
       x="55.94133"
       style="font-variant:normal;font-weight:normal;font-size:13.86666584px;font-family:Arial;-inkscape-font-specification:Arial;writing-mode:lr-tb;fill:#000000;fill-opacity:1;fill-rule:nonzero;stroke:none;stroke-width:1.33333325"
       id="text346"><tspan
         style="stroke-width:1.33333325"
         id="tspan344" /></text>
<text
       y="205.85738"
       x="36.708"
       style="font-variant:normal;font-weight:normal;font-size:13.86666584px;font-family:Arial;-inkscape-font-specification:Arial;writing-mode:lr-tb;fill:#000000;fill-opacity:1;fill-rule:nonzero;stroke:none;stroke-width:1.33333325"
       id="text350"><tspan
         style="stroke-width:1.33333325"
         id="tspan348" /></text>
<text
       y="205.85738"
       x="479.86798"
       style="font-variant:normal;font-weight:normal;font-size:13.86666584px;font-family:Arial;-inkscape-font-specification:Arial;writing-mode:lr-tb;fill:#000000;fill-opacity:1;fill-rule:nonzero;stroke:none;stroke-width:1.33333325"
       id="text354"><tspan
         style="stroke-width:1.33333325"
         x="479.86798"
         y="205.85738"
         id="tspan352">.</tspan></text>
<text
       y="221.89737"
       x="36.708"
       style="font-variant:normal;font-weight:normal;font-size:13.89999962px;font-family:Arial;-inkscape-font-specification:Arial;writing-mode:lr-tb;fill:#000000;fill-opacity:1;fill-rule:nonzero;stroke:none;stroke-width:1.33333325"
       id="text362"><tspan
         style="stroke-width:1.33333325"
         id="tspan360" /></text>
<text
       y="221.89737"
       x="222.53465"
       style="font-variant:normal;font-weight:normal;font-size:13.89999962px;font-family:Arial;-inkscape-font-specification:Arial;writing-mode:lr-tb;fill:#000000;fill-opacity:1;fill-rule:nonzero;stroke:none;stroke-width:1.33333325"
       id="text374"><tspan
         style="stroke-width:1.33333325"
         id="tspan372" /></text>
<text
       y="221.89737"
       x="316.508"
       style="font-variant:normal;font-weight:normal;font-size:13.89999962px;font-family:Arial;-inkscape-font-specification:Arial;writing-mode:lr-tb;fill:#000000;fill-opacity:1;fill-rule:nonzero;stroke:none;stroke-width:1.33333325"
       id="text378"><tspan
         style="stroke-width:1.33333325"
         x="316.508"
         y="221.89737"
         id="tspan376">-</tspan></text>
<text
       y="221.89737"
       x="320.77463"
       style="font-variant:normal;font-weight:normal;font-size:13.89999962px;font-family:Arial;-inkscape-font-specification:Arial;writing-mode:lr-tb;fill:#000000;fill-opacity:1;fill-rule:nonzero;stroke:none;stroke-width:1.33333325"
       id="text382"><tspan
         style="stroke-width:1.33333325"
         id="tspan380" /></text>
<text
       y="221.89737"
       x="408.34796"
       style="font-variant:normal;font-weight:normal;font-size:13.89999962px;font-family:Arial;-inkscape-font-specification:Arial;writing-mode:lr-tb;fill:#000000;fill-opacity:1;fill-rule:nonzero;stroke:none;stroke-width:1.33333325"
       id="text386"><tspan
         style="stroke-width:1.33333325"
         id="tspan384" /></text>
<text
       y="83.190712"
       x="27.748001"
       style="font-variant:normal;font-weight:normal;font-size:58.76666641px;font-family:Calibri;-inkscape-font-specification:Calibri;writing-mode:lr-tb;fill:#000000;fill-opacity:1;fill-rule:nonzero;stroke:none;stroke-width:1.33333325"
       id="text394"><tspan
         style="stroke-width:1.33333325"
         x="27.748001 54.42804 68.296997 99.266998 139.81601 164.38046 195.23297 223.08838"
         y="83.190712"
         id="tspan392">Flowchart Skeleton</tspan></text>
<text
       y="43.190712"
       x="497.61465"
       style="font-variant:normal;font-weight:normal;font-size:58.76666641px;font-family:Calibri;-inkscape-font-specification:Calibri;writing-mode:lr-tb;fill:#000000;fill-opacity:1;fill-rule:nonzero;stroke:none;stroke-width:1.33333325"
       id="text398"><tspan
         style="stroke-width:1.33333325"
         id="tspan396" /></text>
<text
       id="text659"
       y="101.21333"
       x="202.73549"
       style="font-style:normal;font-weight:normal;font-size:16px;line-height:1.25;font-family:sans-serif;letter-spacing:0px;word-spacing:0px;fill:#000000;fill-opacity:1;stroke:none"
       xml:space="preserve"><tspan
         style="font-weight:bold"
         y="115.36958"
         x="202.73549"
         id="tspan657"
         sodipodi:role="line" /></text>
<flowRoot
       transform="translate(-1.825333,103.03071)"
       id="flowRoot1466"
       style="font-style:normal;font-weight:normal;font-size:16.39144897px;line-height:1.25;font-family:sans-serif;letter-spacing:0px;word-spacing:0px;fill:#000000;fill-opacity:1;stroke:none;stroke-width:1.02446556"
       xml:space="preserve"><flowRegion
         id="flowRegion1468"><use
           height="100%"
           width="100%"
           id="use1470"
           xlink:href="#path308"
           y="0"
           x="0"
           transform="translate(11.825333,-103.64379)" /></flowRegion><flowPara
         style="font-weight:bold;font-size:10.66666698px;line-height:0;text-align:center;text-anchor:middle"
         id="flowPara1472">Notes</flowPara><flowPara
         style="font-size:10.66666698px;line-height:0"
         id="flowPara1478">* A single starting material must always be defined in order for  these rules to work. </flowPara><flowPara
         style="font-size:10.66666698px;line-height:0"
         id="flowPara1474">* To determine the skeleton in the product in cases where it is  not obvious, imagine the reaction being run in reverse, and  follow the flowchart as usual. </flowPara><flowPara
         style="font-size:10.66666698px;line-height:0"
         id="flowPara1476">* X = heteroatom group (where heteroatom = any non-metal or  metalloid element other than C or H).</flowPara></flowRoot><flowRoot
       transform="translate(8.174667,103.03071)"
       id="flowRoot1518"
       style="font-style:normal;font-weight:normal;font-size:16px;line-height:1.25;font-family:sans-serif;letter-spacing:0px;word-spacing:0px;fill:#000000;fill-opacity:1;stroke:none"
       xml:space="preserve"><flowRegion
         id="flowRegion1520"><use
           height="100%"
           width="100%"
           id="use1522"
           xlink:href="#path144"
           y="0"
           x="0"
           transform="translate(11.825333,-103.64379)" /></flowRegion><flowPara
         style="font-size:9.33333302px;text-align:start;text-anchor:start"
         id="flowPara1524">Select these atoms. Go to 2.</flowPara></flowRoot><flowRoot
       transform="translate(-9.825333,113.03071)"
       id="flowRoot1532"
       style="font-style:normal;font-weight:normal;font-size:5.33333349px;line-height:1.25;font-family:sans-serif;letter-spacing:0px;word-spacing:0px;fill:#000000;fill-opacity:1;stroke:none"
       xml:space="preserve"><flowRegion
         style="font-size:5.33333349px"
         id="flowRegion1534"><use
           height="100%"
           width="100%"
           id="use1536"
           xlink:href="#path210"
           y="0"
           x="0"
           transform="translate(11.825333,-103.64379)" /></flowRegion><flowPara
         style="font-size:9.33333302px"
         id="flowPara1538">2. Are any unselected heteroatoms (or linear chains of heteroatoms) connected to two or more C atoms?</flowPara></flowRoot><flowRoot
       transform="translate(8.174667,109.03071)"
       id="flowRoot1634"
       style="font-variant:normal;font-weight:normal;font-size:10.69999886px;font-family:Arial;-inkscape-font-specification:Arial;writing-mode:lr-tb;fill:#000000;fill-opacity:1;fill-rule:nonzero;stroke:none;stroke-width:1.33333325"
       xml:space="preserve"><flowRegion
         id="flowRegion1636"><use
           height="100%"
           width="100%"
           id="use1638"
           xlink:href="#path196"
           y="0"
           x="0"
           transform="translate(11.825333,-103.64379)" /></flowRegion><flowPara
         style="font-size:9.33333302px"
         id="flowPara1640">None</flowPara></flowRoot><flowRoot
       transform="translate(10.174667,105.03071)"
       id="flowRoot1654"
       style="font-variant:normal;font-weight:normal;font-size:10.69999886px;font-family:Arial;-inkscape-font-specification:Arial;writing-mode:lr-tb;fill:#000000;fill-opacity:1;fill-rule:nonzero;stroke:none;stroke-width:1.33333325"
       xml:space="preserve"><flowRegion
         id="flowRegion1656"><use
           height="100%"
           width="100%"
           id="use1658"
           xlink:href="#path248"
           y="0"
           x="0"
           transform="translate(11.825333,-103.64379)" /></flowRegion><flowPara
         style="font-size:9.33333302px"
         id="flowPara1660">One</flowPara></flowRoot><flowRoot
       transform="translate(-9.825333,109.03071)"
       id="flowRoot1676"
       style="font-style:normal;font-weight:normal;font-size:9.33333302px;line-height:1.25;font-family:sans-serif;letter-spacing:0px;word-spacing:0px;fill:#000000;fill-opacity:1;stroke:none"
       xml:space="preserve"><flowRegion
         style="font-size:9.33333302px"
         id="flowRegion1678"><use
           height="100%"
           width="100%"
           id="use1680"
           xlink:href="#path256"
           y="0"
           x="0"
           transform="translate(11.825333,-103.64379)" /></flowRegion><flowPara
         id="flowPara1684"
         style="font-size:9.33333302px"><flowSpan
   style="font-size:9.33333302px"
   id="flowSpan1682">two or more: </flowSpan>Select these atoms. </flowPara><flowPara
         id="flowPara1686"
         style="font-size:9.33333302px">Go to 6.1</flowPara></flowRoot><text
       id="text1690"
       y="724.5307"
       x="204.67467"
       style="font-style:normal;font-weight:normal;font-size:16px;line-height:1.25;font-family:sans-serif;letter-spacing:0px;word-spacing:0px;fill:#000000;fill-opacity:1;stroke:none"
       xml:space="preserve"><tspan
         y="738.68695"
         x="204.67467"
         id="tspan1688"
         sodipodi:role="line"></tspan></text>
<flowRoot
       transform="translate(-7.825333,117.03071)"
       id="flowRoot1734"
       style="font-style:normal;font-weight:normal;font-size:9.33333302px;line-height:1.25;font-family:sans-serif;letter-spacing:0px;word-spacing:0px;fill:#000000;fill-opacity:1;stroke:none"
       xml:space="preserve"><flowRegion
         id="flowRegion1736"><use
           height="100%"
           width="100%"
           id="use1738"
           xlink:href="#path70"
           y="0"
           x="0"
           transform="translate(11.825333,-103.64379)" /></flowRegion><flowPara
         style="font-size:9.33333302px"
         id="flowPara1740">4. Out of the C-X bonds to this atom in the starting material, how many remain in the desired product?</flowPara></flowRoot><flowRoot
       transform="translate(-5.825333,115.03071)"
       id="flowRoot1766"
       style="font-style:normal;font-weight:normal;font-size:9.33333302px;line-height:1.25;font-family:sans-serif;letter-spacing:0px;word-spacing:0px;fill:#000000;fill-opacity:1;stroke:none"
       xml:space="preserve"><flowRegion
         id="flowRegion1768"><use
           height="100%"
           width="100%"
           id="use1770"
           xlink:href="#path98"
           y="0"
           x="0"
           transform="translate(11.825333,-103.64379)" /></flowRegion><flowPara
         style="font-size:9.33333302px"
         id="flowPara1772">5. Are all of the C-X bonds to this heteroatom broken?</flowPara></flowRoot><flowRoot
       transform="translate(-7.825333,111.03071)"
       id="flowRoot1798"
       style="font-style:normal;font-weight:normal;font-size:9.33333302px;line-height:1.25;font-family:sans-serif;letter-spacing:0px;word-spacing:0px;fill:#000000;fill-opacity:1;stroke:none"
       xml:space="preserve"><flowRegion
         id="flowRegion1800"><use
           height="100%"
           width="100%"
           id="use1802"
           xlink:href="#path42"
           y="0"
           x="0"
           transform="translate(11.825333,-103.64379)" /></flowRegion><flowPara
         style="font-size:9.33333302px"
         id="flowPara1804">3. Are any of the C-X bonds to this heteroatom broken during the reaction?</flowPara></flowRoot><flowRoot
       transform="translate(-3.825333,111.03071)"
       id="flowRoot1883"
       style="font-style:normal;font-weight:normal;font-size:9.33333302px;line-height:1.25;font-family:sans-serif;letter-spacing:0px;word-spacing:0px;fill:#000000;fill-opacity:1;stroke:none"
       xml:space="preserve"><flowRegion
         id="flowRegion1885"><use
           height="100%"
           width="100%"
           id="use1887"
           xlink:href="#path178"
           y="0"
           x="0"
           transform="translate(11.825333,-103.64379)" /></flowRegion><flowPara
         style="font-size:9.33333302px"
         id="flowPara1889">Select all the C atoms in the starting material. END</flowPara></flowRoot><flowRoot
       transform="translate(-9.825333,111.03071)"
       id="flowRoot1915"
       style="font-style:normal;font-weight:normal;font-size:9.33333302px;line-height:1.25;font-family:sans-serif;letter-spacing:0px;word-spacing:0px;fill:#000000;fill-opacity:1;stroke:none"
       xml:space="preserve"><flowRegion
         id="flowRegion1917"><use
           height="100%"
           width="100%"
           id="use1919"
           xlink:href="#path22"
           y="0"
           x="0"
           transform="translate(11.825333,-103.64379)" /></flowRegion><flowPara
         style="font-size:9.33333302px"
         id="flowPara1921">1. Do any heteroatoms (or linear chains of heteroatoms) form part of a ring?</flowPara></flowRoot><flowRoot
       transform="translate(-5.825333,111.03071)"
       id="flowRoot1952"
       style="font-style:normal;font-weight:normal;font-size:9.33333302px;line-height:1.25;font-family:sans-serif;letter-spacing:0px;word-spacing:0px;fill:#000000;fill-opacity:1;stroke:none"
       xml:space="preserve"><flowRegion
         id="flowRegion1954"><use
           height="100%"
           width="100%"
           id="use1956"
           xlink:href="#path122"
           y="0"
           x="0"
           transform="translate(11.825333,-103.64379)" /></flowRegion><flowPara
         style="font-size:9.33333302px"
         id="flowPara1958">6. Select all the carbon atoms present in the starting material that are also present in the desired product of the reaction. END</flowPara><flowPara
         style="font-size:9.33333302px"
         id="flowPara1960" /></flowRoot></g></svg>