<?xml version="1.0" encoding="UTF-8" standalone="no"?>
<!-- Created with Inkscape (http://www.inkscape.org/) -->

<svg
   version="1.1"
   id="svg2"
   xml:space="preserve"
   width="960"
   height="720"
   viewBox="0 0 960 720"
   xmlns="http://www.w3.org/2000/svg"
   xmlns:svg="http://www.w3.org/2000/svg"><defs
     id="defs6"><clipPath
       clipPathUnits="userSpaceOnUse"
       id="clipPath16"><path
         d="M 0,1.2207e-4 H 720 V 540.00012 H 0 Z"
         clip-rule="evenodd"
         id="path14" /></clipPath><clipPath
       clipPathUnits="userSpaceOnUse"
       id="clipPath162"><path
         d="M 1.056e-6,540 H 720 V 0 H 1.056e-6"
         clip-rule="evenodd"
         id="path160" /></clipPath><clipPath
       clipPathUnits="userSpaceOnUse"
       id="clipPath172"><path
         d="M -2.7e-8,540 H 720 V 1.2207e-4 H -2.7e-8"
         clip-rule="evenodd"
         id="path170" /></clipPath><clipPath
       clipPathUnits="userSpaceOnUse"
       id="clipPath242"><path
         d="M 1.67e-7,540 H 720 V 1.2207e-4 H 1.67e-7"
         clip-rule="evenodd"
         id="path240" /></clipPath><clipPath
       clipPathUnits="userSpaceOnUse"
       id="clipPath280"><path
         d="M 3.41e-7,540 H 720 V 1.2207e-4 H -6.43e-7"
         clip-rule="evenodd"
         id="path278" /></clipPath></defs><g
     id="g8"
     transform="matrix(1.3333333,0,0,-1.3333333,0,720)"><g
       id="g10"><g
         id="g12"
         clip-path="url(#clipPath16)"><path
           d="M 0,6.104e-6 H 720 V 540.00001 H 0 Z"
           style="fill:#ffffff;fill-opacity:1;fill-rule:evenodd;stroke:none"
           id="path18" /></g></g><path
       d="m 14.456,412.22 c 0,2.87 2.326,5.2 5.196,5.2 H 156.66 c 2.87,0 5.2,-2.33 5.2,-5.2 v -20.79 c 0,-2.87 -2.33,-5.19 -5.2,-5.19 H 19.652 c -2.87,0 -5.196,2.32 -5.196,5.19 z"
       style="fill:#eedc00;fill-opacity:1;fill-rule:evenodd;stroke:none"
       id="path20" /><path
       d="m 14.456,412.22 c 0,2.87 2.326,5.2 5.196,5.2 H 156.66 c 2.87,0 5.2,-2.33 5.2,-5.2 v -20.79 c 0,-2.87 -2.33,-5.19 -5.2,-5.19 H 19.652 c -2.87,0 -5.196,2.32 -5.196,5.19 z"
       style="fill:none;stroke:#1f497d;stroke-width:2;stroke-linecap:butt;stroke-linejoin:round;stroke-miterlimit:10;stroke-dasharray:none;stroke-opacity:1"
       id="path22" /><text
       transform="matrix(1,0,0,-1,21.675,408.02)"
       style="font-variant:normal;font-weight:normal;font-size:8.025px;font-family:Arial;-inkscape-font-specification:Arial;writing-mode:lr-tb;fill:#000000;fill-opacity:1;fill-rule:nonzero;stroke:none"
       id="text26"><tspan
         x="0 4.790925 7.182375"
         y="0"
         id="tspan24">1. </tspan></text><text
       transform="matrix(1,0,0,-1,30.475,408.02)"
       style="font-variant:normal;font-weight:normal;font-size:8.025px;font-family:Arial;-inkscape-font-specification:Arial;writing-mode:lr-tb;fill:#000000;fill-opacity:1;fill-rule:nonzero;stroke:none"
       id="text30"><tspan
         x="0 5.60145 10.392375 12.783825 17.574751 22.365675 26.378176 27.967125 32.758049 37.548977 39.940426 44.73135 47.130825 51.921749 56.712673 59.104126 63.89505 71.085449 74.287422 75.884399 78.283875 83.074799 85.474274 87.071251 89.4627 91.854149 96.645073 101.436 106.22693 108.6264"
         y="0"
         id="tspan28">Do any heteroatoms (or linear </tspan></text><text
       transform="matrix(1,0,0,-1,21.675,398.42)"
       style="font-variant:normal;font-weight:normal;font-size:8px;font-family:Arial;-inkscape-font-specification:Arial;writing-mode:lr-tb;fill:#000000;fill-opacity:1;fill-rule:nonzero;stroke:none"
       id="text34"><tspan
         x="0 4 8.7919998 13.584 15.976 20.768 23.968 25.568001 30.360001 32.751999 34.352001 39.144001 43.936001 46.327999 51.119999 53.52 58.312 63.104 65.496002 70.288002 77.480003 80.68 83.080002 84.68 87.071999 91.863998 94.264 101.456 103.056 107.848 112.64 115.04 117.432 119.032 123.824 126.216 127.816 132.608"
         y="0"
         id="tspan32">chains of heteroatoms) form part of a </tspan></text><text
       transform="matrix(1,0,0,-1,21.675,388.8)"
       style="font-variant:normal;font-weight:normal;font-size:8px;font-family:Arial;-inkscape-font-specification:Arial;writing-mode:lr-tb;fill:#000000;fill-opacity:1;fill-rule:nonzero;stroke:none"
       id="text38"><tspan
         x="0 2.4000001 4.7919998 9.5839996 14.376"
         y="0"
         id="tspan36">ring?</tspan></text><path
       d="m 14.456,244.79 c 0,2.96 2.404,5.37 5.369,5.37 H 156.49 c 2.96,0 5.37,-2.41 5.37,-5.37 v -21.48 c 0,-2.97 -2.41,-5.37 -5.37,-5.37 H 19.825 c -2.965,0 -5.369,2.4 -5.369,5.37 z"
       style="fill:#eedc00;fill-opacity:1;fill-rule:evenodd;stroke:none"
       id="path40" /><path
       d="m 14.456,244.79 c 0,2.96 2.404,5.37 5.369,5.37 H 156.49 c 2.96,0 5.37,-2.41 5.37,-5.37 v -21.48 c 0,-2.97 -2.41,-5.37 -5.37,-5.37 H 19.825 c -2.965,0 -5.369,2.4 -5.369,5.37 z"
       style="fill:none;stroke:#1f497d;stroke-width:2;stroke-linecap:butt;stroke-linejoin:round;stroke-miterlimit:10;stroke-dasharray:none;stroke-opacity:1"
       id="path42" /><text
       transform="matrix(1,0,0,-1,21.725,240)"
       style="font-variant:normal;font-weight:normal;font-size:8px;font-family:Arial;-inkscape-font-specification:Arial;writing-mode:lr-tb;fill:#000000;fill-opacity:1;fill-rule:nonzero;stroke:none"
       id="text46"><tspan
         x="0 4.7919998 7.184"
         y="0"
         id="tspan44">3. </tspan></text><text
       transform="matrix(1,0,0,-1,30.525,240)"
       style="font-variant:normal;font-weight:normal;font-size:8px;font-family:Arial;-inkscape-font-specification:Arial;writing-mode:lr-tb;fill:#000000;fill-opacity:1;fill-rule:nonzero;stroke:none"
       id="text50"><tspan
         x="0 5.592 7.9920001 12.784 15.176 19.968 24.76 28.76 30.360001 35.152 37.543999 39.144001 41.535999 46.327999 51.119999 52.720001"
         y="0"
         id="tspan48">Are any of the C</tspan></text><text
       transform="matrix(1,0,0,-1,89,240)"
       style="font-variant:normal;font-weight:normal;font-size:8px;font-family:Arial;-inkscape-font-specification:Arial;writing-mode:lr-tb;fill:#000000;fill-opacity:1;fill-rule:nonzero;stroke:none"
       id="text54"><tspan
         x="0"
         y="0"
         id="tspan52">-</tspan></text><text
       transform="matrix(1,0,0,-1,91.4,240)"
       style="font-variant:normal;font-weight:normal;font-size:8px;font-family:Arial;-inkscape-font-specification:Arial;writing-mode:lr-tb;fill:#000000;fill-opacity:1;fill-rule:nonzero;stroke:none"
       id="text58"><tspan
         x="0 5.592 7.9840002 12.776 17.568001 22.360001 27.152 30.351999 31.952 34.344002 39.136002 40.736 43.127998 47.919998 50.312 53.512001"
         y="0"
         id="tspan56">X bonds to this </tspan></text><text
       transform="matrix(1,0,0,-1,21.725,230.38)"
       style="font-variant:normal;font-weight:normal;font-size:8.025px;font-family:Arial;-inkscape-font-specification:Arial;writing-mode:lr-tb;fill:#000000;fill-opacity:1;fill-rule:nonzero;stroke:none"
       id="text62"><tspan
         x="0 4.790925 9.5818501 11.9733 16.764225 19.1637 23.954624 28.74555 31.136999 35.927925 43.118324 44.715302 49.506226 51.905701 56.696625 59.898602 64.689522 69.480453 71.077423 75.868347 80.659271 83.058746 85.450203 90.241127 94.237572 95.834549 98.225998 103.01692 107.80785"
         y="0"
         id="tspan60">heteroatom broken during the </tspan></text><text
       transform="matrix(1,0,0,-1,21.725,220.77)"
       style="font-variant:normal;font-weight:normal;font-size:8px;font-family:Arial;-inkscape-font-specification:Arial;writing-mode:lr-tb;fill:#000000;fill-opacity:1;fill-rule:nonzero;stroke:none"
       id="text66"><tspan
         x="0 2.4000001 7.1919999 11.984 15.984 18.375999 20.768 25.559999 30.351999"
         y="0"
         id="tspan64">reaction?</tspan></text><path
       d="m 14.456,186.27 c 0,3.9 3.158,7.06 7.055,7.06 H 154.8 c 3.9,0 7.06,-3.16 7.06,-7.06 v -28.22 c 0,-3.9 -3.16,-7.06 -7.06,-7.06 H 21.511 c -3.897,0 -7.055,3.16 -7.055,7.06 z"
       style="fill:#eedc00;fill-opacity:1;fill-rule:evenodd;stroke:none"
       id="path68" /><path
       d="m 14.456,186.27 c 0,3.9 3.158,7.06 7.055,7.06 H 154.8 c 3.9,0 7.06,-3.16 7.06,-7.06 v -28.22 c 0,-3.9 -3.16,-7.06 -7.06,-7.06 H 21.511 c -3.897,0 -7.055,3.16 -7.055,7.06 z"
       style="fill:none;stroke:#1f497d;stroke-width:2;stroke-linecap:butt;stroke-linejoin:round;stroke-miterlimit:10;stroke-dasharray:none;stroke-opacity:1"
       id="path70" /><text
       transform="matrix(1,0,0,-1,22.225,178.02)"
       style="font-variant:normal;font-weight:normal;font-size:8px;font-family:Arial;-inkscape-font-specification:Arial;writing-mode:lr-tb;fill:#000000;fill-opacity:1;fill-rule:nonzero;stroke:none"
       id="text74"><tspan
         x="0 4.7919998 7.184"
         y="0"
         id="tspan72">4. </tspan></text><text
       transform="matrix(1,0,0,-1,31.025,178.02)"
       style="font-variant:normal;font-weight:normal;font-size:8px;font-family:Arial;-inkscape-font-specification:Arial;writing-mode:lr-tb;fill:#000000;fill-opacity:1;fill-rule:nonzero;stroke:none"
       id="text78"><tspan
         x="0 6.3920002 11.184 13.576 15.176 19.968 22.360001 24.752001 27.143999 31.936001 36.728001 38.327999"
         y="0"
         id="tspan76">Out of the C</tspan></text><text
       transform="matrix(1,0,0,-1,75.075,178.02)"
       style="font-variant:normal;font-weight:normal;font-size:8px;font-family:Arial;-inkscape-font-specification:Arial;writing-mode:lr-tb;fill:#000000;fill-opacity:1;fill-rule:nonzero;stroke:none"
       id="text82"><tspan
         x="0"
         y="0"
         id="tspan80">-</tspan></text><text
       transform="matrix(1,0,0,-1,77.475,178.02)"
       style="font-variant:normal;font-weight:normal;font-size:8px;font-family:Arial;-inkscape-font-specification:Arial;writing-mode:lr-tb;fill:#000000;fill-opacity:1;fill-rule:nonzero;stroke:none"
       id="text86"><tspan
         x="0 5.592 7.1919999 11.984 16.775999 21.568001 26.360001 29.559999 31.952 34.344002 39.136002 40.736 43.127998 47.919998 50.312 53.512001 55.112 59.903999 62.296001 67.087997 74.279999"
         y="0"
         id="tspan84">X bonds to this atom </tspan></text><text
       transform="matrix(1,0,0,-1,22.225,168.4)"
       style="font-variant:normal;font-weight:normal;font-size:8.025px;font-family:Arial;-inkscape-font-specification:Arial;writing-mode:lr-tb;fill:#000000;fill-opacity:1;fill-rule:nonzero;stroke:none"
       id="text90"><tspan
         x="0 2.3914499 7.182375 8.7793503 11.1708 15.961725 20.752649 22.349625 25.5516 27.94305 32.733974 35.13345 37.524899 39.916351 44.707275 49.498199 51.095177 58.285576 63.0765 65.467949 70.258873 72.658348 75.049797 79.840729 81.437698 83.829147 85.426125 90.217049 95.007973 100.60943 102.2064 109.3968 114.18772 118.18417 122.19668"
         y="0"
         id="tspan88">in the starting material, how many </tspan></text><text
       transform="matrix(1,0,0,-1,22.225,158.8)"
       style="font-variant:normal;font-weight:normal;font-size:8px;font-family:Arial;-inkscape-font-specification:Arial;writing-mode:lr-tb;fill:#000000;fill-opacity:1;fill-rule:nonzero;stroke:none"
       id="text94"><tspan
         x="0 2.4000001 7.1919999 14.384 19.176001 21.568001 26.360001 27.959999 30.351999 35.144001 36.743999 39.136002 43.928001 48.720001 50.32 55.112 59.903999 63.104 65.496002 67.896004 72.688004 77.480003 79.080002 83.872002 86.272003 91.064003 95.856003 99.856003 103.856 106.248"
         y="0"
         id="tspan92">remain in the desired product?</tspan></text><path
       d="m 252.65,184.34 c 0,3.37 2.73,6.09 6.09,6.09 h 101.22 c 3.36,0 6.09,-2.72 6.09,-6.09 v -24.36 c 0,-3.36 -2.73,-6.09 -6.09,-6.09 H 258.74 c -3.36,0 -6.09,2.73 -6.09,6.09 z"
       style="fill:#eedc00;fill-opacity:1;fill-rule:evenodd;stroke:none"
       id="path96" /><path
       d="m 252.65,184.34 c 0,3.37 2.73,6.09 6.09,6.09 h 101.22 c 3.36,0 6.09,-2.72 6.09,-6.09 v -24.36 c 0,-3.36 -2.73,-6.09 -6.09,-6.09 H 258.74 c -3.36,0 -6.09,2.73 -6.09,6.09 z"
       style="fill:none;stroke:#1f497d;stroke-width:2;stroke-linecap:butt;stroke-linejoin:round;stroke-miterlimit:10;stroke-dasharray:none;stroke-opacity:1"
       id="path98" /><text
       transform="matrix(1,0,0,-1,260.4,173.2)"
       style="font-variant:normal;font-weight:normal;font-size:8.025px;font-family:Arial;-inkscape-font-specification:Arial;writing-mode:lr-tb;fill:#000000;fill-opacity:1;fill-rule:nonzero;stroke:none"
       id="text102"><tspan
         x="0 4.790925 7.182375"
         y="0"
         id="tspan100">5. </tspan></text><text
       transform="matrix(1,0,0,-1,269.2,173.2)"
       style="font-variant:normal;font-weight:normal;font-size:8.025px;font-family:Arial;-inkscape-font-specification:Arial;writing-mode:lr-tb;fill:#000000;fill-opacity:1;fill-rule:nonzero;stroke:none"
       id="text106"><tspan
         x="0 5.5934248 7.9928999 12.783825 15.175275 19.9662 22.357651 24.7491 26.346075 31.136999 33.52845 35.125423 37.516876 42.3078 47.098724 48.695702"
         y="0"
         id="tspan104">Are all of the C</tspan></text><text
       transform="matrix(1,0,0,-1,323.67,173.2)"
       style="font-variant:normal;font-weight:normal;font-size:8.025px;font-family:Arial;-inkscape-font-specification:Arial;writing-mode:lr-tb;fill:#000000;fill-opacity:1;fill-rule:nonzero;stroke:none"
       id="text110"><tspan
         x="0"
         y="0"
         id="tspan108">-</tspan></text><text
       transform="matrix(1,0,0,-1,326.08,173.2)"
       style="font-variant:normal;font-weight:normal;font-size:8.025px;font-family:Arial;-inkscape-font-specification:Arial;writing-mode:lr-tb;fill:#000000;fill-opacity:1;fill-rule:nonzero;stroke:none"
       id="text114"><tspan
         x="0 5.5934248 7.1904001 11.981325 16.772249 21.563175 26.354099 29.556074"
         y="0"
         id="tspan112">X bonds </tspan></text><text
       transform="matrix(1,0,0,-1,260.4,163.6)"
       style="font-variant:normal;font-weight:normal;font-size:8px;font-family:Arial;-inkscape-font-specification:Arial;writing-mode:lr-tb;fill:#000000;fill-opacity:1;fill-rule:nonzero;stroke:none"
       id="text118"><tspan
         x="0 2.392 7.184 8.7840004 11.176 15.968 18.360001 21.559999 23.952 28.743999 33.535999 35.928001 40.720001 43.119999 47.911999 52.703999 55.096001 59.888 67.080002 68.68 73.472 75.872002 80.664001 83.863998 88.655998 93.447998"
         y="0"
         id="tspan116">to this heteroatom broken?</tspan></text><path
       d="m 14.455,44.049 c 0,2.599 2.107,4.705 4.706,4.705 H 270.25 c 2.59,0 4.7,-2.106 4.7,-4.705 v -18.82 c 0,-2.599 -2.11,-4.706 -4.7,-4.706 H 19.161 c -2.599,0 -4.706,2.107 -4.706,4.706 z"
       style="fill:#eedc00;fill-opacity:1;fill-rule:evenodd;stroke:none"
       id="path120" /><path
       d="m 14.455,44.049 c 0,2.599 2.107,4.705 4.706,4.705 H 270.25 c 2.59,0 4.7,-2.106 4.7,-4.705 v -18.82 c 0,-2.599 -2.11,-4.706 -4.7,-4.706 H 19.161 c -2.599,0 -4.706,2.107 -4.706,4.706 z"
       style="fill:none;stroke:#1f497d;stroke-width:2;stroke-linecap:butt;stroke-linejoin:round;stroke-miterlimit:10;stroke-dasharray:none;stroke-opacity:1"
       id="path122" /><text
       transform="matrix(1,0,0,-1,21.525,35.475)"
       style="font-variant:normal;font-weight:normal;font-size:8.025px;font-family:Arial;-inkscape-font-specification:Arial;writing-mode:lr-tb;fill:#000000;fill-opacity:1;fill-rule:nonzero;stroke:none"
       id="text126"><tspan
         x="0"
         y="0"
         id="tspan124">6</tspan></text><text
       transform="matrix(1,0,0,-1,26.325,35.475)"
       style="font-variant:normal;font-weight:normal;font-size:8.025px;font-family:Arial;-inkscape-font-specification:Arial;writing-mode:lr-tb;fill:#000000;fill-opacity:1;fill-rule:nonzero;stroke:none"
       id="text130"><tspan
         x="0 2.39995"
         y="0"
         id="tspan128">. </tspan></text><text
       transform="matrix(1,0,0,-1,30.325,35.475)"
       style="font-variant:normal;font-weight:normal;font-size:8.025px;font-family:Arial;-inkscape-font-specification:Arial;writing-mode:lr-tb;fill:#000000;fill-opacity:1;fill-rule:nonzero;stroke:none"
       id="text134"><tspan
         x="0 5.5934248 10.38435 12.7758 17.566725 21.579226 23.96265 25.559626 30.35055 32.742001 35.13345 36.730427 39.121876 43.9128 48.703724 50.300701 54.313202 59.0961 61.495575 66.286499 71.077423 75.073875 76.670853 81.461777 83.853226 88.64415 95.834549 99.036522 100.6335 105.42442 107.8239 112.61482 115.8168 120.60773 125.39865 127.7901 129.38707 131.77852 136.56944 138.16643 140.55788 145.3488 150.13972 151.73669 154.93867 157.33012 162.12105 164.52052 166.91197 169.30342 174.09435 178.88527 180.48225 187.67265 192.46358 194.85503 198.85147 201.25095 203.6424 208.43332 210.0303 211.62727 214.01872 218.80965 223.60057 225.19756 226.79453 230.79097 232.38795 237.17888"
         y="0"
         id="tspan132">Select all the carbon atoms present in the starting material that are </tspan></text><text
       transform="matrix(1,0,0,-1,21.525,25.875)"
       style="font-variant:normal;font-weight:normal;font-size:8px;font-family:Arial;-inkscape-font-specification:Arial;writing-mode:lr-tb;fill:#000000;fill-opacity:1;fill-rule:nonzero;stroke:none"
       id="text138"><tspan
         x="0 4.7919998 7.184 10.384 15.176 16.775999 21.568001 23.968 28.76 31.959999 36.751999 41.543999 43.936001 46.327999 48.720001 53.512001 55.112 57.504002 62.296001 67.087997 68.688004 73.480003 78.272003 81.472 83.863998 86.264 91.056 95.848 97.447998 102.24 104.64 109.432 114.224 119.016 123.016 125.408 127.008 131.8 134.192 135.79201 138.18401 142.976 147.76801 149.368 151.76801 156.56 161.35201 165.35201 167.744 170.136 174.92799 178.92799 181.32001 182.92 188.51199 194.112"
         y="0"
         id="tspan136">also present in the desired product of the reaction. END</tspan></text><path
       d="m 89.656,386.24 v -39.46 h -3 v 39.46 z m 3,-37.96 -4.5,-9 -4.5,9 z"
       style="fill:#c00000;fill-opacity:1;fill-rule:nonzero;stroke:none"
       id="path140" /><path
       d="m 146.45,369.52 c 0,1.7 1.37,3.07 3.07,3.07 h 117.83 c 1.7,0 3.07,-1.37 3.07,-3.07 v -12.28 c 0,-1.7 -1.37,-3.07 -3.07,-3.07 H 149.52 c -1.7,0 -3.07,1.37 -3.07,3.07 z"
       style="fill:#ffffff;fill-opacity:1;fill-rule:evenodd;stroke:none"
       id="path142" /><path
       d="m 146.45,369.52 c 0,1.7 1.37,3.07 3.07,3.07 h 117.83 c 1.7,0 3.07,-1.37 3.07,-3.07 v -12.28 c 0,-1.7 -1.37,-3.07 -3.07,-3.07 H 149.52 c -1.7,0 -3.07,1.37 -3.07,3.07 z"
       style="fill:none;stroke:#004976;stroke-width:2;stroke-linecap:butt;stroke-linejoin:round;stroke-miterlimit:10;stroke-dasharray:none;stroke-opacity:1"
       id="path144" /><text
       transform="matrix(1,0,0,-1,157.23,359.9)"
       style="font-variant:normal;font-weight:normal;font-size:8.025px;font-family:Arial;-inkscape-font-specification:Arial;writing-mode:lr-tb;fill:#000000;fill-opacity:1;fill-rule:nonzero;stroke:none"
       id="text148"><tspan
         x="0 5.5934248 10.38435 12.7758 17.566725 21.579226 23.96265 25.559626 27.951075 32.742001 37.532925 40.734901 45.525826 47.122799 51.913727 54.305176 59.0961 66.310577 69.51255 71.903999 73.500977 79.896896 84.687828 86.284798 88.676247 93.467178 95.064148 99.855072"
         y="0"
         id="tspan146">Select these atoms. Go to 2.</tspan></text><path
       d="m 161.86,403.33 h 46.57 c 0.83,0 1.5,-0.67 1.5,-1.5 v -21.74 h -3 v 21.74 l 1.5,-1.5 h -46.57 z m 51.07,-21.74 -4.5,-9 -4.5,9 z"
       style="fill:#92d050;fill-opacity:1;fill-rule:nonzero;stroke:none"
       id="path150" /><path
       d="m 161.86,232.55 h 46.57 c 0.83,0 1.5,0.67 1.5,1.5 v 24.2 h -3 v -24.2 l 1.5,1.5 h -46.57 z m 51.07,24.2 -4.5,9 -4.5,-9 z"
       style="fill:#c8102e;fill-opacity:1;fill-rule:nonzero;stroke:none"
       id="path152" /><path
       d="m 161.86,319.7 h 66.54 v -3 h -66.54 z m 65.04,3 9,-4.5 -9,-4.5 z"
       style="fill:#c8102e;fill-opacity:1;fill-rule:nonzero;stroke:none"
       id="path154" /><g
       id="g156"><g
         id="g158"
         clip-path="url(#clipPath162)"><path
           d="m 209.93,284.18 v 21.62 c 0,0.82 -0.67,1.5 -1.5,1.5 h -39.07 v -3 h 39.07 l -1.5,1.5 v -21.62 z m -39.07,26.12 -9,-4.5 9,-4.5 z"
           style="fill:#c8102e;fill-opacity:1;fill-rule:nonzero;stroke:none"
           id="path164" /></g></g><g
       id="g166"><g
         id="g168"
         clip-path="url(#clipPath172)"><path
           d="M 209.93,354.17 V 330.6 c 0,-0.83 -0.67,-1.5 -1.5,-1.5 h -39.07 v 3 h 39.07 l -1.5,-1.5 v 23.57 z m -39.07,-28.07 -9,4.5 9,4.5 z"
           style="fill:#97d700;fill-opacity:1;fill-rule:nonzero;stroke:none"
           id="path174" /></g></g><path
       d="m 235.9,326.47 c 0,2.28 1.85,4.13 4.14,4.13 h 125.81 c 2.28,0 4.13,-1.85 4.13,-4.13 v -16.54 c 0,-2.28 -1.85,-4.13 -4.13,-4.13 H 240.04 c -2.29,0 -4.14,1.85 -4.14,4.13 z"
       style="fill:#ffffff;fill-opacity:1;fill-rule:evenodd;stroke:none"
       id="path176" /><path
       d="m 235.9,326.47 c 0,2.28 1.85,4.13 4.14,4.13 h 125.81 c 2.28,0 4.13,-1.85 4.13,-4.13 v -16.54 c 0,-2.28 -1.85,-4.13 -4.13,-4.13 H 240.04 c -2.29,0 -4.14,1.85 -4.14,4.13 z"
       style="fill:none;stroke:#004976;stroke-width:2;stroke-linecap:butt;stroke-linejoin:round;stroke-miterlimit:10;stroke-dasharray:none;stroke-opacity:1"
       id="path178" /><text
       transform="matrix(1,0,0,-1,251.9,319.48)"
       style="font-variant:normal;font-weight:normal;font-size:8px;font-family:Arial;-inkscape-font-specification:Arial;writing-mode:lr-tb;fill:#000000;fill-opacity:1;fill-rule:nonzero;stroke:none"
       id="text182"><tspan
         x="0 5.592 10.384 12.776 17.568001 21.568001 23.959999 25.559999 30.351999 32.743999 35.136002 36.736 39.127998 43.919998 48.712002 50.312 55.911999 57.512001 62.304001 64.695999 69.487999 76.68 79.879997 81.480003 83.872002 88.664001 90.264 92.655998 97.447998 102.24"
         y="0"
         id="tspan180">Select all the C atoms in the </tspan></text><text
       transform="matrix(1,0,0,-1,263.1,309.85)"
       style="font-variant:normal;font-weight:normal;font-size:8.025px;font-family:Arial;-inkscape-font-specification:Arial;writing-mode:lr-tb;fill:#000000;fill-opacity:1;fill-rule:nonzero;stroke:none"
       id="text186"><tspan
         x="0 3.2019751 5.5934248 10.38435 12.783825 15.175275 17.566725 22.357651 27.148575 28.74555 35.935951 40.726875 43.118324 47.909248 50.308723 52.700176 57.4911 59.088074 61.479527"
         y="0"
         id="tspan184">starting material. </tspan></text><text
       transform="matrix(1,0,0,-1,326.38,309.85)"
       style="font-variant:normal;font-weight:normal;font-size:8.025px;font-family:Arial;-inkscape-font-specification:Arial;writing-mode:lr-tb;fill:#000000;fill-opacity:1;fill-rule:nonzero;stroke:none"
       id="text190"><tspan
         x="0 5.5934248 11.194875"
         y="0"
         id="tspan188">END</tspan></text><path
       d="m 89.656,297.11 v -39.45 h -3 v 39.45 z m 3,-37.95 -4.5,-9 -4.5,9 z"
       style="fill:#97d700;fill-opacity:1;fill-rule:nonzero;stroke:none"
       id="path192" /><path
       d="m 184.14,178.77 c 0,1.83 1.48,3.31 3.31,3.31 h 41.97 c 1.82,0 3.3,-1.48 3.3,-3.31 v -13.22 c 0,-1.83 -1.48,-3.31 -3.3,-3.31 h -41.97 c -1.83,0 -3.31,1.48 -3.31,3.31 z"
       style="fill:#ffffff;fill-opacity:1;fill-rule:evenodd;stroke:none"
       id="path194" /><path
       d="m 184.14,178.77 c 0,1.83 1.48,3.31 3.31,3.31 h 41.97 c 1.82,0 3.3,-1.48 3.3,-3.31 v -13.22 c 0,-1.83 -1.48,-3.31 -3.3,-3.31 h -41.97 c -1.83,0 -3.31,1.48 -3.31,3.31 z"
       style="fill:none;stroke:#004976;stroke-width:2;stroke-linecap:butt;stroke-linejoin:round;stroke-miterlimit:10;stroke-dasharray:none;stroke-opacity:1"
       id="path196" /><text
       transform="matrix(1,0,0,-1,198.23,168.4)"
       style="font-variant:normal;font-weight:normal;font-size:8.025px;font-family:Arial;-inkscape-font-specification:Arial;writing-mode:lr-tb;fill:#000000;fill-opacity:1;fill-rule:nonzero;stroke:none"
       id="text200"><tspan
         x="0 5.60145 10.392375 15.1833"
         y="0"
         id="tspan198">None</tspan></text><path
       d="m 161.86,173.66 h 14.78 v -3 h -14.78 z m 13.28,3 9,-4.5 -9,-4.5 z"
       style="fill:#c8102e;fill-opacity:1;fill-rule:nonzero;stroke:none"
       id="path202" /><path
       d="m 232.72,173.66 h 12.43 v -3 h -12.43 z m 10.93,3 9,-4.5 -9,-4.5 z"
       style="fill:#c8102e;fill-opacity:1;fill-rule:nonzero;stroke:none"
       id="path204" /><path
       d="m 89.656,217.94 v -17.11 h -3 v 17.11 z m 3,-15.61 -4.5,-9 -4.5,9 z"
       style="fill:#97d700;fill-opacity:1;fill-rule:nonzero;stroke:none"
       id="path206" /><path
       d="m 14.456,332.26 c 0,3.88 3.147,7.02 7.029,7.02 H 154.83 c 3.88,0 7.03,-3.14 7.03,-7.02 v -28.12 c 0,-3.88 -3.15,-7.03 -7.03,-7.03 H 21.485 c -3.882,0 -7.029,3.15 -7.029,7.03 z"
       style="fill:#eedc00;fill-opacity:1;fill-rule:evenodd;stroke:none"
       id="path208" /><path
       d="m 14.456,332.26 c 0,3.88 3.147,7.02 7.029,7.02 H 154.83 c 3.88,0 7.03,-3.14 7.03,-7.02 v -28.12 c 0,-3.88 -3.15,-7.03 -7.03,-7.03 H 21.485 c -3.882,0 -7.029,3.15 -7.029,7.03 z"
       style="fill:none;stroke:#1f497d;stroke-width:2;stroke-linecap:butt;stroke-linejoin:round;stroke-miterlimit:10;stroke-dasharray:none;stroke-opacity:1"
       id="path210" /><text
       transform="matrix(1,0,0,-1,22.2,324.27)"
       style="font-variant:normal;font-weight:normal;font-size:8px;font-family:Arial;-inkscape-font-specification:Arial;writing-mode:lr-tb;fill:#000000;fill-opacity:1;fill-rule:nonzero;stroke:none"
       id="text214"><tspan
         x="0 4.816 7.2080002"
         y="0"
         id="tspan212">2. </tspan></text><text
       transform="matrix(1,0,0,-1,31.025,324.27)"
       style="font-variant:normal;font-weight:normal;font-size:8px;font-family:Arial;-inkscape-font-specification:Arial;writing-mode:lr-tb;fill:#000000;fill-opacity:1;fill-rule:nonzero;stroke:none"
       id="text218"><tspan
         x="0 5.6160002 8.0159998 12.832 15.224 20.040001 24.856001 28.856001 30.455999 35.271999 40.088001 43.287998 48.104 50.495998 55.312 59.312 61.703999 66.519997 71.335999 72.935997 77.751999 82.568001 84.959999 89.776001 92.176003 96.991997 101.808 103.408 108.224 114.648 117.848"
         y="0"
         id="tspan216">Are any unselected heteroatoms </tspan></text><text
       transform="matrix(1,0,0,-1,22.2,314.65)"
       style="font-variant:normal;font-weight:normal;font-size:8.025px;font-family:Arial;-inkscape-font-specification:Arial;writing-mode:lr-tb;fill:#000000;fill-opacity:1;fill-rule:nonzero;stroke:none"
       id="text222"><tspan
         x="0 2.3994751 7.2144752 9.6139498 12.0054 14.39685 16.7883 21.6033 26.418301 31.233299 33.632774 35.229752 39.242249 44.049225 48.864223 51.255676 55.252125 58.454102 60.051075 64.866074 67.257523 68.8545 73.669502 78.484497 80.875954 85.690948 88.090424 92.905426 97.720428 100.11188 104.92687 111.3549 114.55688 116.95635"
         y="0"
         id="tspan220">(or linear chains of heteroatoms) </tspan></text><text
       transform="matrix(1,0,0,-1,22.2,305.05)"
       style="font-variant:normal;font-weight:normal;font-size:8px;font-family:Arial;-inkscape-font-specification:Arial;writing-mode:lr-tb;fill:#000000;fill-opacity:1;fill-rule:nonzero;stroke:none"
       id="text226"><tspan
         x="0 4 8.816 13.632 18.448 23.264 27.264 29.656 34.472 39.287998 40.888 43.279999 48.096001 49.695999 52.088001 57.712002 62.528 64.127998 68.944 71.344002 72.944 80.160004 84.975998 87.375999 92.192001 93.792 99.416 101.016 105.832 108.224 113.04 120.256 123.456"
         y="0"
         id="tspan224">connected to two or more C atoms?</tspan></text><path
       d="m 146.45,281.11 c 0,1.69 1.37,3.07 3.07,3.07 h 117.83 c 1.7,0 3.07,-1.38 3.07,-3.07 v -12.29 c 0,-1.69 -1.37,-3.07 -3.07,-3.07 H 149.52 c -1.7,0 -3.07,1.38 -3.07,3.07 z"
       style="fill:#ffffff;fill-opacity:1;fill-rule:evenodd;stroke:none"
       id="path228" /><path
       d="m 146.45,281.11 c 0,1.69 1.37,3.07 3.07,3.07 h 117.83 c 1.7,0 3.07,-1.38 3.07,-3.07 v -12.29 c 0,-1.69 -1.37,-3.07 -3.07,-3.07 H 149.52 c -1.7,0 -3.07,1.38 -3.07,3.07 z"
       style="fill:none;stroke:#004976;stroke-width:2;stroke-linecap:butt;stroke-linejoin:round;stroke-miterlimit:10;stroke-dasharray:none;stroke-opacity:1"
       id="path230" /><text
       transform="matrix(1,0,0,-1,157.23,271.38)"
       style="font-variant:normal;font-weight:normal;font-size:8px;font-family:Arial;-inkscape-font-specification:Arial;writing-mode:lr-tb;fill:#000000;fill-opacity:1;fill-rule:nonzero;stroke:none"
       id="text234"><tspan
         x="0 5.592 10.384 12.776 17.568001 21.568001 23.959999 25.559999 27.952 32.743999 37.535999 40.736 45.528 47.127998 51.919998 54.312 59.104 66.32 69.519997 71.912003 73.512001 79.903999 84.695999 86.295998 88.688004 93.480003 95.080002 99.872002"
         y="0"
         id="tspan232">Select these atoms. Go to 2.</tspan></text><g
       id="g236"><g
         id="g238"
         clip-path="url(#clipPath242)"><path
           d="m 89.656,150.99 v -24.77 c 0,-0.83 -0.671,-1.5 -1.5,-1.5 H 39.999 l 1.5,1.5 v -21.35 h -3 v 21.35 c 0,0.83 0.672,1.5 1.5,1.5 h 48.157 l -1.5,-1.5 v 24.77 z m -45.157,-44.62 -4.5,-8.996 -4.5,8.996 z"
           style="fill:#97d700;fill-opacity:1;fill-rule:nonzero;stroke:none"
           id="path244" /></g></g><path
       d="m 14.456,94.803 c 0,1.42 1.151,2.571 2.57,2.571 h 45.946 c 1.419,0 2.571,-1.151 2.571,-2.571 V 84.519 c 0,-1.419 -1.152,-2.571 -2.571,-2.571 H 17.026 c -1.419,0 -2.57,1.152 -2.57,2.571 z"
       style="fill:#ffffff;fill-opacity:1;fill-rule:evenodd;stroke:none"
       id="path246" /><path
       d="m 14.456,94.803 c 0,1.42 1.151,2.571 2.57,2.571 h 45.946 c 1.419,0 2.571,-1.151 2.571,-2.571 V 84.519 c 0,-1.419 -1.152,-2.571 -2.571,-2.571 H 17.026 c -1.419,0 -2.57,1.152 -2.57,2.571 z"
       style="fill:none;stroke:#004976;stroke-width:2;stroke-linecap:butt;stroke-linejoin:round;stroke-miterlimit:10;stroke-dasharray:none;stroke-opacity:1"
       id="path248" /><text
       transform="matrix(1,0,0,-1,32.15,85.775)"
       style="font-variant:normal;font-weight:normal;font-size:8.025px;font-family:Arial;-inkscape-font-specification:Arial;writing-mode:lr-tb;fill:#000000;fill-opacity:1;fill-rule:nonzero;stroke:none"
       id="text252"><tspan
         x="0 6.395925 11.18685"
         y="0"
         id="tspan250">One</tspan></text><path
       d="m 86.593,96.623 c 0,2.559 2.075,4.637 4.634,4.637 H 198.18 c 2.56,0 4.63,-2.078 4.63,-4.637 V 78.089 c 0,-2.559 -2.07,-4.633 -4.63,-4.633 H 91.227 c -2.559,0 -4.634,2.074 -4.634,4.633 z"
       style="fill:#ffffff;fill-opacity:1;fill-rule:evenodd;stroke:none"
       id="path254" /><path
       d="m 86.593,96.623 c 0,2.559 2.075,4.637 4.634,4.637 H 198.18 c 2.56,0 4.63,-2.078 4.63,-4.637 V 78.089 c 0,-2.559 -2.07,-4.633 -4.63,-4.633 H 91.227 c -2.559,0 -4.634,2.074 -4.634,4.633 z"
       style="fill:none;stroke:#004976;stroke-width:2;stroke-linecap:butt;stroke-linejoin:round;stroke-miterlimit:10;stroke-dasharray:none;stroke-opacity:1"
       id="path256" /><text
       transform="matrix(1,0,0,-1,96.95,88.275)"
       style="font-variant:normal;font-weight:normal;font-size:8.025px;font-family:Arial;-inkscape-font-specification:Arial;writing-mode:lr-tb;fill:#000000;fill-opacity:1;fill-rule:nonzero;stroke:none"
       id="text260"><tspan
         x="0 5.6174998 11.243025 16.058025 17.655001 22.469999 24.869474 26.46645 33.680923 38.495926 40.895401 45.7104 48.101849"
         y="0"
         id="tspan258">Two or more. </tspan></text><text
       transform="matrix(1,0,0,-1,146.6,88.275)"
       style="font-variant:normal;font-weight:normal;font-size:8.025px;font-family:Arial;-inkscape-font-specification:Arial;writing-mode:lr-tb;fill:#000000;fill-opacity:1;fill-rule:nonzero;stroke:none"
       id="text264"><tspan
         x="0 5.6174998 10.4325 12.82395 17.63895 21.651449 24.05895 25.655926 28.047375 32.862373 37.677376 40.903423 45.718426"
         y="0"
         id="tspan262">Select these </tspan></text><text
       transform="matrix(1,0,0,-1,116.95,78.675)"
       style="font-variant:normal;font-weight:normal;font-size:8px;font-family:Arial;-inkscape-font-specification:Arial;writing-mode:lr-tb;fill:#000000;fill-opacity:1;fill-rule:nonzero;stroke:none"
       id="text268"><tspan
         x="0 4.816 7.2080002 12.024 19.24 22.464001 24.856001 26.455999 32.872002 37.688 39.287998 41.68 46.495998"
         y="0"
         id="tspan266">atoms. Go to </tspan></text><text
       transform="matrix(1,0,0,-1,165.02,78.675)"
       style="font-variant:normal;font-weight:normal;font-size:8px;font-family:Arial;-inkscape-font-specification:Arial;writing-mode:lr-tb;fill:#000000;fill-opacity:1;fill-rule:nonzero;stroke:none"
       id="text272"><tspan
         x="0 4.8249998"
         y="0"
         id="tspan270">6.</tspan></text><g
       id="g274"><g
         id="g276"
         clip-path="url(#clipPath280)"><path
           d="m 86.656,150.99 v -24.86 c 0,-0.83 0.672,-1.5 1.5,-1.5 H 144.7 l -1.5,1.5 v -17.37 h 3 v 17.37 c 0,0.82 -0.67,1.5 -1.5,1.5 H 88.156 l 1.5,-1.5 v 24.86 z m 53.544,-40.73 4.5,-9 4.5,9 z"
           style="fill:#97d700;fill-opacity:1;fill-rule:nonzero;stroke:none"
           id="path282" /></g></g><path
       d="M 40.452,83.378 138.01,52.451 137.1,49.591 39.546,80.519 Z m 97.028,-27.614 7.22,-7.01 -9.94,-1.569 z"
       style="fill:#97d700;fill-opacity:1;fill-rule:nonzero;stroke:none"
       id="path284" /><path
       d="M 146.2,73.456 V 56.254 h -3 v 17.202 z m 3,-15.702 -4.5,-9 -4.5,9 z"
       style="fill:#97d700;fill-opacity:1;fill-rule:nonzero;stroke:none"
       id="path286" /><path
       d="m 366.05,170.66 h 18 l -1.5,1.5 V 34.639 l 1.5,1.5 h -101.6 v -3 h 101.6 c 0.83,0 1.5,0.672 1.5,1.5 V 172.16 c 0,0.83 -0.67,1.5 -1.5,1.5 h -18 z m -82.1,-131.521 -9,-4.5 9,-4.5 z"
       style="fill:#c00000;fill-opacity:1;fill-rule:nonzero;stroke:none"
       id="path288" /><path
       d="m 310.85,153.89 v -46.02 h -3 v 46.02 z m 3,-44.52 -4.5,-9 -4.5,9 z"
       style="fill:#97d700;fill-opacity:1;fill-rule:nonzero;stroke:none"
       id="path290" /><path
       d="m 247.36,97.303 c 0,1.696 1.38,3.067 3.08,3.067 h 117.83 c 1.69,0 3.07,-1.371 3.07,-3.067 V 85.019 c 0,-1.696 -1.38,-3.071 -3.07,-3.071 H 250.44 c -1.7,0 -3.08,1.375 -3.08,3.071 z"
       style="fill:#ffffff;fill-opacity:1;fill-rule:evenodd;stroke:none"
       id="path292" /><path
       d="m 247.36,97.303 c 0,1.696 1.38,3.067 3.08,3.067 h 117.83 c 1.69,0 3.07,-1.371 3.07,-3.067 V 85.019 c 0,-1.696 -1.38,-3.071 -3.07,-3.071 H 250.44 c -1.7,0 -3.08,1.375 -3.08,3.071 z"
       style="fill:none;stroke:#004976;stroke-width:2;stroke-linecap:butt;stroke-linejoin:round;stroke-miterlimit:10;stroke-dasharray:none;stroke-opacity:1"
       id="path294" /><text
       transform="matrix(1,0,0,-1,258.27,87.275)"
       style="font-variant:normal;font-weight:normal;font-size:8.025px;font-family:Arial;-inkscape-font-specification:Arial;writing-mode:lr-tb;fill:#000000;fill-opacity:1;fill-rule:nonzero;stroke:none"
       id="text298"><tspan
         x="0 5.6174998 10.4325 12.82395 17.63895 21.651449 24.05895 25.655926 28.047375 32.862373 37.677376 40.903423 45.718426 47.315399 52.130402 54.521851 59.336849 66.551323 69.777374 72.168823 73.7658 80.185799 85.000801 86.597778 88.989227 93.804222"
         y="0"
         id="tspan296">Select these atoms. Go to </tspan></text><text
       transform="matrix(1,0,0,-1,353.58,87.275)"
       style="font-variant:normal;font-weight:normal;font-size:8.025px;font-family:Arial;-inkscape-font-specification:Arial;writing-mode:lr-tb;fill:#000000;fill-opacity:1;fill-rule:nonzero;stroke:none"
       id="text302"><tspan
         x="0 4.8249002"
         y="0"
         id="tspan300">6.</tspan></text><path
       d="m 309.06,83.419 -157.3,-31.712 0.59,-2.941 157.3,31.712 z m -156.42,-28.475 -7.94,-6.19 9.72,-2.632 z"
       style="fill:#97d700;fill-opacity:1;fill-rule:nonzero;stroke:none"
       id="path304" /><path
       d="m 12.119,513.81 c 0,9.39 7.616,17.01 17.01,17.01 H 368.63 c 9.39,0 17.01,-7.62 17.01,-17.01 v -68.04 c 0,-9.4 -7.62,-17.01 -17.01,-17.01 H 29.129 c -9.394,0 -17.01,7.61 -17.01,17.01 z"
       style="fill:#eedc00;fill-opacity:1;fill-rule:evenodd;stroke:none"
       id="path306" /><path
       d="m 12.119,513.81 c 0,9.39 7.616,17.01 17.01,17.01 H 368.63 c 9.39,0 17.01,-7.62 17.01,-17.01 v -68.04 c 0,-9.4 -7.62,-17.01 -17.01,-17.01 H 29.129 c -9.394,0 -17.01,7.61 -17.01,17.01 z"
       style="fill:none;stroke:#1f497d;stroke-width:2;stroke-linecap:butt;stroke-linejoin:round;stroke-miterlimit:10;stroke-dasharray:none;stroke-opacity:1"
       id="path308" /><text
       transform="matrix(1,0,0,-1,182.18,510.95)"
       style="font-variant:normal;font-weight:bold;font-size:12px;font-family:Arial;-inkscape-font-specification:'Arial Bold';writing-mode:lr-tb;fill:#000000;fill-opacity:1;fill-rule:nonzero;stroke:none"
       id="text312"><tspan
         x="0 8.7840004 15.984 19.98 27.167999"
         y="0"
         id="tspan310">Notes</tspan></text><path
       d="m 181.97,508.59 h 33.6 v 1.6 h -33.6 z"
       style="fill:#000000;fill-opacity:1;fill-rule:evenodd;stroke:none"
       id="path314" /><text
       transform="matrix(1,0,0,-1,22.8,498.92)"
       style="font-variant:normal;font-weight:normal;font-size:10.425px;font-family:Arial;-inkscape-font-specification:Arial;writing-mode:lr-tb;fill:#000000;fill-opacity:1;fill-rule:nonzero;stroke:none"
       id="text318"><tspan
         x="0"
         y="0"
         id="tspan316">•</tspan></text><text
       transform="matrix(1,0,0,-1,36.4,498.92)"
       style="font-variant:normal;font-weight:normal;font-size:10.425px;font-family:Arial;-inkscape-font-specification:Arial;writing-mode:lr-tb;fill:#000000;fill-opacity:1;fill-rule:nonzero;stroke:none"
       id="text322"><tspan
         x="0 7.2004752"
         y="0"
         id="tspan320">A </tspan></text><text
       transform="matrix(1,0,0,-1,46.025,498.92)"
       style="font-variant:normal;font-weight:normal;font-size:10.425px;font-family:Arial;-inkscape-font-specification:Arial;writing-mode:lr-tb;fill:#000000;fill-opacity:1;fill-rule:nonzero;stroke:none"
       id="text326"><tspan
         x="0 5.5878 7.9751248 13.57335 19.171576 21.558901 27.157125 29.554874 35.142673 38.332726 43.93095 47.131424 50.321476 52.708801 58.307026 63.102524 65.500275 74.288551 79.886772 83.076828 88.675049 91.875526 94.262848 99.05835 101.44568 103.84342 112.6317 118.22993 123.02543 126.21548 128.61322 134.21146 136.59877 143.80244 149.40068 154.19618 158.99167 161.38942 166.98766 172.58588 174.98363 180.58185 186.18007 188.57782 190.96515 196.56337 202.16161 207.75983 210.15758 212.54491 218.14313 220.54088 226.1391 229.33957 234.93781 240.53603 243.7365 246.13425 248.532 254.13022 257.33069 259.72845 262.91849 268.51672 274.11496 279.70276 285.30096 287.69873 290.8992 296.49744 298.88474 304.48297 310.07077 312.46854 315.65857 321.25681"
         y="0"
         id="tspan324">single starting material must always be defined in order for these rules to </tspan></text><text
       transform="matrix(1,0,0,-1,36.4,486.9)"
       style="font-variant:normal;font-weight:normal;font-size:10.425px;font-family:Arial;-inkscape-font-specification:Arial;writing-mode:lr-tb;fill:#000000;fill-opacity:1;fill-rule:nonzero;stroke:none"
       id="text330"><tspan
         x="0 7.2036748 12.8019 16.002375"
         y="0"
         id="tspan328">work</tspan></text><text
       transform="matrix(1,0,0,-1,58.025,486.9)"
       style="font-variant:normal;font-weight:normal;font-size:10.425px;font-family:Arial;-inkscape-font-specification:Arial;writing-mode:lr-tb;fill:#000000;fill-opacity:1;fill-rule:nonzero;stroke:none"
       id="text334"><tspan
         x="0"
         y="0"
         id="tspan332">.</tspan></text><text
       transform="matrix(1,0,0,-1,22.8,474.9)"
       style="font-variant:normal;font-weight:normal;font-size:10.4px;font-family:Arial;-inkscape-font-specification:Arial;writing-mode:lr-tb;fill:#000000;fill-opacity:1;fill-rule:nonzero;stroke:none"
       id="text338"><tspan
         x="0"
         y="0"
         id="tspan336">•</tspan></text><text
       transform="matrix(1,0,0,-1,36.4,474.9)"
       style="font-variant:normal;font-weight:normal;font-size:10.4px;font-family:Arial;-inkscape-font-specification:Arial;writing-mode:lr-tb;fill:#000000;fill-opacity:1;fill-rule:nonzero;stroke:none"
       id="text342"><tspan
         x="0 5.5952001 11.1904"
         y="0"
         id="tspan340">To </tspan></text><text
       transform="matrix(1,0,0,-1,50.825,474.9)"
       style="font-variant:normal;font-weight:normal;font-size:10.4px;font-family:Arial;-inkscape-font-specification:Arial;writing-mode:lr-tb;fill:#000000;fill-opacity:1;fill-rule:nonzero;stroke:none"
       id="text346"><tspan
         x="0 5.5952001 11.1904 14.3832 19.978399 23.181601 31.969601 34.361599 39.956799 45.551998 47.954399 51.147202 56.742401 62.337601 64.739998 70.324799 75.909599 81.504799 83.896797 88.701599 91.894402 97.489601 103.0848 105.4872 107.8792 113.4744 115.8768 119.0696 123.8744 129.4696 131.87199 137.46719 140.67039 146.26559 151.86079 157.45599 163.0408 165.44321 167.8456 170.23759 175.83279 178.2352 183.82001 189.41521 194.22 199.8152 204.62 207.0224 214.21919 219.81441 225.40961 228.61279 234.20799 236.6104 239.0024 242.19521 244.5976 246.98959 252.5744 254.97681 260.57199 266.16721 268.56961 270.97198 276.5672 282.16241 286.16641 288.55841 294.15359 299.74881 305.33359 308.5264"
         y="0"
         id="tspan344">determine the skeleton in the product in cases where it is not obvious, </tspan></text><text
       transform="matrix(1,0,0,-1,36.4,462.88)"
       style="font-variant:normal;font-weight:normal;font-size:10.4px;font-family:Arial;-inkscape-font-specification:Arial;writing-mode:lr-tb;fill:#000000;fill-opacity:1;fill-rule:nonzero;stroke:none"
       id="text350"><tspan
         x="0 2.392 11.18 16.7752 22.370399 24.7624 30.357599 35.952801 38.355202 41.548 47.1432 52.7384 55.1408 58.344002 63.939201 69.534401 75.119202 78.311996 80.704002 86.299202 91.894402 94.296799 99.891998 105.4872 107.8792 113.4744 119.0696 121.472 124.6752 130.2704 135.8656 138.26801 140.66 146.2552 148.65759 151.86079 157.45599 161.46001 167.05521 170.25841 175.8432 181.4384 184.6312 187.0336 192.6288 198.224 203.8192 206.2216 208.62399 214.21919 216.61121 219.0032 224.5984 231.7952 234.1976 237.3904 242.9856 248.5808 250.9832 253.3856 255.7776 261.3728 268.56961 274.15439 279.7496 285.34479 288.548 291.74081 294.14319 299.7384 304.54321 306.94559 312.5408 318.12561 323.72079 329.31601"
         y="0"
         id="tspan348">imagine the reaction being run in reverse, and follow the flowchart as usual</tspan></text><text
       transform="matrix(1,0,0,-1,368.77,462.88)"
       style="font-variant:normal;font-weight:normal;font-size:10.4px;font-family:Arial;-inkscape-font-specification:Arial;writing-mode:lr-tb;fill:#000000;fill-opacity:1;fill-rule:nonzero;stroke:none"
       id="text354"><tspan
         x="0"
         y="0"
         id="tspan352">.</tspan></text><text
       transform="matrix(1,0,0,-1,22.8,450.85)"
       style="font-variant:normal;font-weight:normal;font-size:10.425px;font-family:Arial;-inkscape-font-specification:Arial;writing-mode:lr-tb;fill:#000000;fill-opacity:1;fill-rule:nonzero;stroke:none"
       id="text358"><tspan
         x="0"
         y="0"
         id="tspan356">•</tspan></text><text
       transform="matrix(1,0,0,-1,36.4,450.85)"
       style="font-variant:normal;font-weight:normal;font-size:10.425px;font-family:Arial;-inkscape-font-specification:Arial;writing-mode:lr-tb;fill:#000000;fill-opacity:1;fill-rule:nonzero;stroke:none"
       id="text362"><tspan
         x="0 5.5982251 9.5909996 15.981525 18.379274 23.977501 29.575726 32.765774 38.363998 41.564476 47.162701 52.760925 55.950974 61.549198 70.337479 72.735222 78.33345 81.533928 87.132149 92.730377 98.328598"
         y="0"
         id="tspan360">X = heteroatom group </tspan></text><text
       transform="matrix(1,0,0,-1,137.33,450.85)"
       style="font-variant:normal;font-weight:normal;font-size:10.425px;font-family:Arial;-inkscape-font-specification:Arial;writing-mode:lr-tb;fill:#000000;fill-opacity:1;fill-rule:nonzero;stroke:none"
       id="text366"><tspan
         x="0 3.200475 5.5878 8.7778502 14.376075 17.566126"
         y="0"
         id="tspan364">(i.e. </tspan></text><text
       transform="matrix(1,0,0,-1,157.35,450.85)"
       style="font-variant:normal;font-weight:normal;font-size:10.425px;font-family:Arial;-inkscape-font-specification:Arial;writing-mode:lr-tb;fill:#000000;fill-opacity:1;fill-rule:nonzero;stroke:none"
       id="text370"><tspan
         x="0 5.5982251 11.19645 15.99195"
         y="0"
         id="tspan368">any </tspan></text><text
       transform="matrix(1,0,0,-1,175.77,450.85)"
       style="font-variant:normal;font-weight:normal;font-size:10.425px;font-family:Arial;-inkscape-font-specification:Arial;writing-mode:lr-tb;fill:#000000;fill-opacity:1;fill-rule:nonzero;stroke:none"
       id="text374"><tspan
         x="0 8.7882748 14.3865 16.78425 22.382475 24.7698 27.157125 32.755348 35.142673 39.938175 42.335926 47.934151 51.134624 53.532375 59.1306 64.728828"
         y="0"
         id="tspan372">metalloid or non</tspan></text><text
       transform="matrix(1,0,0,-1,246.25,450.85)"
       style="font-variant:normal;font-weight:normal;font-size:10.425px;font-family:Arial;-inkscape-font-specification:Arial;writing-mode:lr-tb;fill:#000000;fill-opacity:1;fill-rule:nonzero;stroke:none"
       id="text378"><tspan
         x="0"
         y="0"
         id="tspan376">-</tspan></text><text
       transform="matrix(1,0,0,-1,249.45,450.85)"
       style="font-variant:normal;font-weight:normal;font-size:10.425px;font-family:Arial;-inkscape-font-specification:Arial;writing-mode:lr-tb;fill:#000000;fill-opacity:1;fill-rule:nonzero;stroke:none"
       id="text382"><tspan
         x="0 8.7882748 14.3865 17.57655 23.174774 25.562099 27.95985 33.558075 35.9454 41.543625 49.5396 55.137825 60.73605 63.133801"
         y="0"
         id="tspan380">metal element </tspan></text><text
       transform="matrix(1,0,0,-1,315.13,450.85)"
       style="font-variant:normal;font-weight:normal;font-size:10.425px;font-family:Arial;-inkscape-font-specification:Arial;writing-mode:lr-tb;fill:#000000;fill-opacity:1;fill-rule:nonzero;stroke:none"
       id="text386"><tspan
         x="0 5.5982251 8.7882748 14.3865 19.984726 23.1852 25.582951 28.773001 34.371223 39.969452 45.567677 47.965424 55.169102"
         y="0"
         id="tspan384">other than C </tspan></text><text
       transform="matrix(1,0,0,-1,36.4,438.83)"
       style="font-variant:normal;font-weight:normal;font-size:10.425px;font-family:Arial;-inkscape-font-specification:Arial;writing-mode:lr-tb;fill:#000000;fill-opacity:1;fill-rule:nonzero;stroke:none"
       id="text390"><tspan
         x="0 5.5982251 8.7987003 11.98875 19.192425 22.3929"
         y="0"
         id="tspan388">or H).</tspan></text><text
       transform="matrix(1,0,0,-1,194.68,584.88)"
       style="font-variant:normal;font-weight:normal;font-size:44.075px;font-family:Calibri;-inkscape-font-specification:Calibri;writing-mode:lr-tb;fill:#000000;fill-opacity:1;fill-rule:nonzero;stroke:none"
       id="text394"><tspan
         x="0 20.01005 30.411751 53.639275 84.051025 102.47437 125.61375 146.50529 161.71118"
         y="0"
         id="tspan392">Flowchart</tspan></text><text
       transform="matrix(1,0,0,-1,382.08,584.88)"
       style="font-variant:normal;font-weight:normal;font-size:44.075px;font-family:Calibri;-inkscape-font-specification:Calibri;writing-mode:lr-tb;fill:#000000;fill-opacity:1;fill-rule:nonzero;stroke:none"
       id="text398"><tspan
         x="0 20.01005 38.433399 60.074226 70.475922 92.116753 105.73592 128.96346"
         y="0"
         id="tspan396">Skeleton</tspan></text></g></svg>
